<svg viewBox="145.60000000000002 121.36024844720498 540.8000000000001 477.1428571428573" xmlns="http://www.w3.org/2000/svg" overflow="visible" xmlns:xlink="http://www.w3.org/1999/xlink" width="540.8000000000001px" height="477.1428571428573px"><g id="Master/Spot Illustration/Process" stroke="none" stroke-width="1" fill="none" fill-rule="evenodd"><path d="M586.099,574 L154.5,574 C154.224,574 154,573.776 154,573.5 C154,573.224 154.224,573 154.5,573 L586.099,573 C586.375,573 586.599,573.224 586.599,573.5 C586.599,573.776 586.375,574 586.099,574" id="Fill-32" fill="#000"/><path d="M500.937,597 L401.5,597 C401.224,597 401,596.776 401,596.5 C401,596.224 401.224,596 401.5,596 L500.937,596 C501.213,596 501.437,596.224 501.437,596.5 C501.437,596.776 501.213,597 500.937,597" id="Fill-33" fill="#000"/><g id="User Interface" transform="translate(116.000000, 56.240000) scale(1 1)"><g id="User Interface/Design" stroke="none" stroke-width="1" fill="none" fill-rule="evenodd"><g id="Group-123" transform="translate(32.000000, 79.000000)"><path d="M298.789361,383 L166.210639,383 C157.25721,383 150,375.761738 150,366.83263 L150,33.1683145 C150,24.2382616 157.25721,17 166.210639,17 L189.739067,17 C195.526283,17 200.218338,21.6798047 200.218338,27.452854 C200.218338,33.2259034 204.910393,37.904764 210.698555,37.904764 L254.301445,37.904764 C260.08866,37.904764 264.780716,33.2259034 264.780716,27.452854 C264.780716,21.6798047 269.472771,17 275.260933,17 L298.789361,17 C307.741844,17 315,24.2382616 315,33.1683145 L315,366.83263 C315,375.761738 307.741844,383 298.789361,383" id="Fill-1" fill="#FFF"/><path d="M166.542758,16.8302313 C157.878176,16.8302313 150.826902,23.899948 150.826902,32.5914021 L150.826902,366.409542 C150.826902,375.099107 157.878176,382.169769 166.542758,382.169769 L298.4563,382.169769 C307.121824,382.169769 314.172156,375.099107 314.172156,366.409542 L314.172156,32.5914021 C314.172156,23.899948 307.121824,16.8302313 298.4563,16.8302313 L275.04592,16.8302313 C269.525075,16.8302313 265.032678,21.3355818 265.032678,26.872346 C265.032678,32.8672013 260.16921,37.7446919 254.191591,37.7446919 L210.807467,37.7446919 C204.829848,37.7446919 199.966381,32.8672013 199.966381,26.872346 C199.966381,21.3355818 195.474925,16.8302313 189.953138,16.8302313 L166.542758,16.8302313 Z M298.4563,383 L166.542758,383 C157.420461,383 150,375.558143 150,366.409542 L150,32.5914021 C150,23.4428013 157.420461,16 166.542758,16 L189.953138,16 C195.930758,16 200.794225,20.8774906 200.794225,26.872346 C200.794225,32.4100546 205.286622,36.9144606 210.807467,36.9144606 L254.191591,36.9144606 C259.713378,36.9144606 264.204833,32.4100546 264.204833,26.872346 C264.204833,20.8774906 269.068301,16 275.04592,16 L298.4563,16 C307.578598,16 315,23.4428013 315,32.5914021 L315,366.409542 C315,375.558143 307.578598,383 298.4563,383 L298.4563,383 Z" id="Fill-3" fill="#000"/><path d="M424.730318,164 L365.268731,164 C361.254627,164 358,160.775623 358,156.799991 L358,8.20095066 C358,4.22437652 361.254627,1 365.268731,1 L375.822507,1 C378.417464,1 380.521946,3.0843123 380.521946,5.65628213 C380.521946,8.22636911 382.626427,10.3106814 385.222335,10.3106814 L404.777665,10.3106814 C407.372622,10.3106814 409.477104,8.22636911 409.477104,5.65628213 C409.477104,3.0843123 411.581585,1 414.177493,1 L424.730318,1 C428.745373,1 432,4.22437652 432,8.20095066 L432,156.799991 C432,160.775623 428.745373,164 424.730318,164" id="Fill-5" fill="#FFF"/><path d="M365.645788,0.941760173 C361.947242,0.941760173 358.938479,3.96198505 358.938479,7.67346189 L358.938479,156.325596 C358.938479,160.038015 361.947242,163.05824 365.645788,163.05824 L424.353274,163.05824 C428.051819,163.05824 431.061521,160.038015 431.061521,156.325596 L431.061521,7.67346189 C431.061521,3.96198505 428.051819,0.941760173 424.353274,0.941760173 L413.934281,0.941760173 C411.634069,0.941760173 409.762742,2.81962996 409.762742,5.12788414 C409.762742,7.95504818 407.470038,10.2557683 404.652725,10.2557683 L385.345398,10.2557683 C382.528085,10.2557683 380.236319,7.95504818 380.236319,5.12788414 C380.236319,2.81962996 378.364992,0.941760173 376.065719,0.941760173 L365.645788,0.941760173 Z M424.353274,164 L365.645788,164 C361.43014,164 358,160.556925 358,156.325596 L358,7.67346189 C358,3.44213343 361.43014,0 365.645788,0 L376.065719,0 C378.882094,0 381.174798,2.29977834 381.174798,5.12788414 C381.174798,7.43613832 383.046125,9.31400811 385.345398,9.31400811 L404.652725,9.31400811 C406.952937,9.31400811 408.824263,7.43613832 408.824263,5.12788414 C408.824263,2.29977834 411.116029,0 413.934281,0 L424.353274,0 C428.56986,0 432,3.44213343 432,7.67346189 L432,156.325596 C432,160.556925 428.56986,164 424.353274,164 L424.353274,164 Z" id="Fill-7" fill="#000"/><path d="M89.3724216,289 L10.6275784,289 C5.31101043,289 1,284.668279 1,279.32617 L1,79.6738295 C1,74.3307755 5.31101043,70 10.6275784,70 L24.6028527,70 C28.0399969,70 30.8271503,72.8005429 30.8271503,76.2541993 C30.8271503,79.7078557 33.6143037,82.5083986 37.0514479,82.5083986 L62.9485521,82.5083986 C66.386637,82.5083986 69.1728497,79.7078557 69.1728497,76.2541993 C69.1728497,72.8005429 71.9600031,70 75.398088,70 L89.3724216,70 C94.6899302,70 99,74.3307755 99,79.6738295 L99,279.32617 C99,284.668279 94.6899302,289 89.3724216,289" id="Fill-9" fill="#FFF"/><path d="M10.1039617,70.945407 C5.05151023,70.945407 0.941216737,75.0739996 0.941216737,80.1489446 L0.941216737,279.851055 C0.941216737,284.926 5.05151023,289.054593 10.1039617,289.054593 L88.8960383,289.054593 C93.9484898,289.054593 98.0587833,284.926 98.0587833,279.851055 L98.0587833,80.1489446 C98.0587833,75.0739996 93.9484898,70.945407 88.8960383,70.945407 L74.9123813,70.945407 C71.7376572,70.945407 69.1549585,73.539604 69.1549585,76.7284619 C69.1549585,80.4391845 66.1505947,83.4569238 62.456319,83.4569238 L36.543681,83.4569238 C32.8494053,83.4569238 29.8450415,80.4391845 29.8450415,76.7284619 C29.8450415,73.539604 27.2614016,70.945407 24.0866775,70.945407 L10.1039617,70.945407 Z M88.8960383,290 L10.1039617,290 C4.53195859,290 0,285.447865 0,279.851055 L0,80.1489446 C0,74.5521349 4.53195859,70 10.1039617,70 L24.0866775,70 C27.7809532,70 30.7862582,73.0177393 30.7862582,76.7284619 C30.7862582,79.9173199 33.368957,82.5115168 36.543681,82.5115168 L62.456319,82.5115168 C65.631043,82.5115168 68.2137418,79.9173199 68.2137418,76.7284619 C68.2137418,73.0177393 71.2190468,70 74.9123813,70 L88.8960383,70 C94.4680414,70 99,74.5521349 99,80.1489446 L99,279.851055 C99,285.447865 94.4680414,290 88.8960383,290 L88.8960383,290 Z" id="Fill-11" fill="#000"/><path d="M328.397556,184 L318,184 L318,183.423739 L328.397556,183.423739 C331.528575,183.423739 334.076667,180.855479 334.076667,177.699677 L334.076667,88.3003235 C334.076667,84.826779 336.881246,82 340.327512,82 L358,82 L358,82.5762606 L340.327512,82.5762606 C337.196493,82.5762606 334.648402,85.1445213 334.648402,88.3003235 L334.648402,177.699677 C334.648402,181.173221 331.843822,184 328.397556,184" id="Fill-13" fill="#94B1EB"/><path d="M147,269 L128.606139,269 C124.272131,269 120.747277,265.462395 120.747277,261.11271 L120.747277,186.88729 C120.747277,182.901576 117.516318,179.658929 113.544969,179.658929 L99,179.658929 L99,179 L113.544969,179 C117.878976,179 121.403831,182.537605 121.403831,186.88729 L121.403831,261.11271 C121.403831,265.098424 124.63479,268.341071 128.606139,268.341071 L147,268.341071 L147,269 Z" id="Fill-15" fill="#94B1EB"/><path d="M155,269 C155,271.208732 153.208732,273 151,273 C148.791268,273 147,271.208732 147,269 C147,266.790334 148.791268,265 151,265 C153.208732,265 155,266.790334 155,269" id="Fill-17" fill="#94B1EB"/><path d="M319,183 C319,185.208732 317.208732,187 315,187 C312.790334,187 311,185.208732 311,183 C311,180.790334 312.790334,179 315,179 C317.208732,179 319,180.790334 319,183" id="Fill-19" fill="#94B1EB"/><path d="M361,82.0004516 C361,83.6569321 359.657134,85 358.000903,85 C356.343769,85 355,83.6569321 355,82.0004516 C355,80.3430679 356.343769,79 358.000903,79 C359.657134,79 361,80.3430679 361,82.0004516" id="Fill-21" fill="#94B1EB"/><path d="M394,164.000452 C394,165.656932 392.657835,167 391.000452,167 C389.343971,167 388,165.656932 388,164.000452 C388,162.343068 389.343971,161 391.000452,161 C392.657835,161 394,162.343068 394,164.000452" id="Fill-23" fill="#94B1EB"/><path d="M102,179.499536 C102,181.432905 100.433113,183 98.5,183 C96.5678146,183 95,181.432905 95,179.499536 C95,177.566168 96.5678146,176 98.5,176 C100.433113,176 102,177.566168 102,179.499536" id="Fill-25" fill="#94B1EB"/><path d="M32,127.5 C32,134.403682 26.4038953,140 19.5004764,140 C12.5970576,140 7,134.403682 7,127.5 C7,120.596318 12.5970576,115 19.5004764,115 C26.4038953,115 32,120.596318 32,127.5" id="Fill-27" fill="#F1EFEF"/><path d="M87.9744164,123 L40.0255836,123 C38.9056876,123 38,122.104824 38,121 C38,119.895176 38.9056876,119 40.0255836,119 L87.9744164,119 C89.0933728,119 90,119.895176 90,121 C90,122.104824 89.0933728,123 87.9744164,123" id="Fill-29" fill="#F1EFEF"/><path d="M87.9744164,134 L40.0255836,134 C38.9056876,134 38,133.104104 38,131.999536 C38,130.894969 38.9056876,130 40.0255836,130 L87.9744164,130 C89.0933728,130 90,130.894969 90,131.999536 C90,133.104104 89.0933728,134 87.9744164,134" id="Fill-31" fill="#F1EFEF"/><path d="M32,167.5 C32,174.403682 26.4038953,180 19.5004764,180 C12.5970576,180 7,174.403682 7,167.5 C7,160.596318 12.5970576,155 19.5004764,155 C26.4038953,155 32,160.596318 32,167.5" id="Fill-33" fill="#F1EFEF"/><path d="M87.9744164,163 L40.0255836,163 C38.9056876,163 38,162.104824 38,161 C38,159.895176 38.9056876,159 40.0255836,159 L87.9744164,159 C89.0933728,159 90,159.895176 90,161 C90,162.104824 89.0933728,163 87.9744164,163" id="Fill-35" fill="#F1EFEF"/><path d="M87.9744164,174 L40.0255836,174 C38.9056876,174 38,173.104104 38,171.999536 C38,170.894969 38.9056876,170 40.0255836,170 L87.9744164,170 C89.0933728,170 90,170.894969 90,171.999536 C90,173.104104 89.0933728,174 87.9744164,174" id="Fill-37" fill="#F1EFEF"/><path d="M418.610031,145 L371.390916,145 C369.518433,145 368,143.489618 368,141.628007 L368,28.3729343 C368,26.5094399 369.518433,25 371.390916,25 L418.610031,25 C420.482513,25 422,26.5094399 422,28.3729343 L422,141.628007 C422,143.489618 420.482513,145 418.610031,145" id="Fill-39" fill="#F1EFEF"/><path d="M32,207.5 C32,214.403682 26.4038953,220 19.5004764,220 C12.5970576,220 7,214.403682 7,207.5 C7,200.596318 12.5970576,195 19.5004764,195 C26.4038953,195 32,200.596318 32,207.5" id="Fill-41" fill="#F1EFEF"/><path d="M87.9744164,204 L40.0255836,204 C38.9056876,204 38,203.104824 38,202 C38,200.895176 38.9056876,200 40.0255836,200 L87.9744164,200 C89.0933728,200 90,200.895176 90,202 C90,203.104824 89.0933728,204 87.9744164,204" id="Fill-43" fill="#F1EFEF"/><path d="M87.9744164,214 L40.0255836,214 C38.9056876,214 38,213.104104 38,211.999536 C38,210.894969 38.9056876,210 40.0255836,210 L87.9744164,210 C89.0933728,210 90,210.894969 90,211.999536 C90,213.104104 89.0933728,214 87.9744164,214" id="Fill-45" fill="#F1EFEF"/><path d="M32,247.5 C32,254.403682 26.4038953,260 19.5004764,260 C12.5970576,260 7,254.403682 7,247.5 C7,240.596318 12.5970576,235 19.5004764,235 C26.4038953,235 32,240.596318 32,247.5" id="Fill-47" fill="#F1EFEF"/><path d="M87.9744164,244 L40.0255836,244 C38.9056876,244 38,243.104824 38,242 C38,240.895176 38.9056876,240 40.0255836,240 L87.9744164,240 C89.0933728,240 90,240.895176 90,242 C90,243.104824 89.0933728,244 87.9744164,244" id="Fill-49" fill="#F1EFEF"/><path d="M87.9744164,255 L40.0255836,255 C38.9056876,255 38,254.104104 38,252.999536 C38,251.894969 38.9056876,251 40.0255836,251 L87.9744164,251 C89.0933728,251 90,251.894969 90,252.999536 C90,254.104104 89.0933728,255 87.9744164,255" id="Fill-51" fill="#F1EFEF"/><path d="M244.239122,209 L139.760878,209 C137.131186,209 135,206.8729 135,204.250358 L135,84.7496415 C135,82.1261558 137.131186,80 139.760878,80 L244.239122,80 C246.868814,80 249,82.1261558 249,84.7496415 L249,204.250358 C249,206.8729 246.868814,209 244.239122,209" id="Fill-53" fill="#94B1EB"/><path d="M301.491771,192 L224.508229,192 C222.570395,192 221,190.43418 221,188.501993 L221,100.498954 C221,98.5667663 222.570395,97 224.508229,97 L301.491771,97 C303.429605,97 305,98.5667663 305,100.498954 L305,188.501993 C305,190.43418 303.429605,192 301.491771,192" id="Fill-55" fill="#EC7068"/><path d="M285.684768,244 L180.317125,244 C179.037405,244 178,242.880262 178,241.5 C178,240.118717 179.037405,239 180.317125,239 L285.684768,239 C286.964488,239 288,240.118717 288,241.5 C288,242.880262 286.964488,244 285.684768,244" id="Fill-57" fill="#F1EFEF"/><path d="M285.684768,260 L180.317125,260 C179.037405,260 178,258.880262 178,257.501022 C178,256.119738 179.037405,255 180.317125,255 L285.684768,255 C286.964488,255 288,256.119738 288,257.501022 C288,258.880262 286.964488,260 285.684768,260" id="Fill-59" fill="#F1EFEF"/><path d="M285.684768,275 L180.317125,275 C179.037405,275 178,273.88049 178,272.500511 C178,271.11951 179.037405,270 180.317125,270 L285.684768,270 C286.964488,270 288,271.11951 288,272.500511 C288,273.88049 286.964488,275 285.684768,275" id="Fill-61" fill="#F1EFEF"/><path d="M285.684768,291 L180.317125,291 C179.037405,291 178,289.880262 178,288.5 C178,287.119738 179.037405,286 180.317125,286 L285.684768,286 C286.964488,286 288,287.119738 288,288.5 C288,289.880262 286.964488,291 285.684768,291" id="Fill-63" fill="#F1EFEF"/><path d="M285.684768,306 L180.317125,306 C179.037405,306 178,304.881283 178,303.501022 C178,302.119738 179.037405,301 180.317125,301 L285.684768,301 C286.964488,301 288,302.119738 288,303.501022 C288,304.881283 286.964488,306 285.684768,306" id="Fill-65" fill="#F1EFEF"/><path d="M324.980793,350 L218.019207,350 C216.351742,350 215,348.65961 215,347.008243 L215,327.990821 C215,326.338516 216.351742,325 218.019207,325 L324.980793,325 C326.649203,325 328,326.338516 328,327.990821 L328,347.008243 C328,348.65961 326.649203,350 324.980793,350" id="Fill-67" fill="#83BB9E"/><path d="M415.698739,43 L374.302196,43 C373.031503,43 372,41.9369069 372,40.6261121 L372,32.3738879 C372,31.0621293 373.031503,30 374.302196,30 L415.698739,30 C416.969431,30 418,31.0621293 418,32.3738879 L418,40.6261121 C418,41.9369069 416.969431,43 415.698739,43" id="Fill-69" fill="#E1E1E1"/><path d="M415.698739,62 L374.302196,62 C373.031503,62 372,60.9369069 372,59.6261121 L372,51.3738879 C372,50.0621293 373.031503,49 374.302196,49 L415.698739,49 C416.969431,49 418,50.0621293 418,51.3738879 L418,59.6261121 C418,60.9369069 416.969431,62 415.698739,62" id="Fill-71" fill="#E1E1E1"/><path d="M415.698739,81 L374.302196,81 C373.031503,81 372,79.9369069 372,78.6261121 L372,70.3738879 C372,69.0621293 373.031503,68 374.302196,68 L415.698739,68 C416.969431,68 418,69.0621293 418,70.3738879 L418,78.6261121 C418,79.9369069 416.969431,81 415.698739,81" id="Fill-73" fill="#E1E1E1"/><path d="M415.698739,100 L374.302196,100 C373.031503,100 372,98.9369069 372,97.6251483 L372,89.3738879 C372,88.0621293 373.031503,87 374.302196,87 L415.698739,87 C416.969431,87 418,88.0621293 418,89.3738879 L418,97.6251483 C418,98.9369069 416.969431,100 415.698739,100" id="Fill-75" fill="#E1E1E1"/><path d="M415.698739,119 L374.302196,119 C373.031503,119 372,117.936907 372,116.625148 L372,108.373888 C372,107.062129 373.031503,106 374.302196,106 L415.698739,106 C416.969431,106 418,107.062129 418,108.373888 L418,116.625148 C418,117.936907 416.969431,119 415.698739,119" id="Fill-77" fill="#E1E1E1"/><path d="M415.698739,138 L374.302196,138 C373.031503,138 372,136.936907 372,135.625148 L372,127.373888 C372,126.062129 373.031503,125 374.302196,125 L415.698739,125 C416.969431,125 418,126.062129 418,127.373888 L418,135.625148 C418,136.936907 416.969431,138 415.698739,138" id="Fill-79" fill="#E1E1E1"/><path d="M409,206 L396.194708,206 C392.778978,206 390,203.178418 390,199.71126 L390,164 L390.56744,164 L390.56744,199.71126 C390.56744,202.86126 393.091347,205.424799 396.194708,205.424799 L409,205.424799 L409,206 Z" id="Fill-81" fill="#94B1EB"/><path d="M478.534103,298 L417.466842,298 C413.343588,298 410,294.657853 410,290.534266 L410,136.466679 C410,132.344037 413.343588,129 417.466842,129 L428.304679,129 C430.970666,129 433.131051,131.161954 433.131051,133.827546 C433.131051,136.492192 435.292381,138.653201 437.958368,138.653201 L458.041632,138.653201 C460.708564,138.653201 462.869894,136.492192 462.869894,133.827546 C462.869894,131.161954 465.030279,129 467.696266,129 L478.534103,129 C482.657357,129 486,132.344037 486,136.466679 L486,290.534266 C486,294.657853 482.657357,298 478.534103,298" id="Fill-83" fill="#FFF"/><path d="M417.842522,129.686043 C413.899911,129.686043 410.691736,132.867815 410.691736,136.777979 L410.691736,290.222021 C410.691736,294.132185 413.899911,297.313957 417.842522,297.313957 L479.157478,297.313957 C483.100089,297.313957 486.308264,294.132185 486.308264,290.222021 L486.308264,136.777979 C486.308264,132.867815 483.100089,129.686043 479.157478,129.686043 L468.275681,129.686043 C465.793402,129.686043 463.775127,131.688649 463.775127,134.150499 C463.775127,136.989721 461.445618,139.300058 458.582836,139.300058 L438.417164,139.300058 C435.554382,139.300058 433.224873,136.989721 433.224873,134.150499 C433.224873,131.688649 431.205649,129.686043 428.724319,129.686043 L417.842522,129.686043 Z M479.157478,298 L417.842522,298 C413.517511,298 410,294.510497 410,290.222021 L410,136.777979 C410,132.489503 413.517511,129 417.842522,129 L428.724319,129 C431.5871,129 433.916609,131.311278 433.916609,134.150499 C433.916609,136.611409 435.934884,138.614015 438.417164,138.614015 L458.582836,138.614015 C461.065116,138.614015 463.08434,136.611409 463.08434,134.150499 C463.08434,131.311278 465.413849,129 468.275681,129 L479.157478,129 C483.48154,129 487,132.489503 487,136.777979 L487,290.222021 C487,294.510497 483.48154,298 479.157478,298 L479.157478,298 Z" id="Fill-85" fill="#000"/><path d="M413,206.000452 C413,207.656932 411.657134,209 410,209 C408.343769,209 407,207.656932 407,206.000452 C407,204.343068 408.343769,203 410,203 C411.657134,203 413,204.343068 413,206.000452" id="Fill-87" fill="#94B1EB"/><path d="M495.694131,169 L436.305869,169 C435.584478,169 435,168.328391 435,167.500542 C435,166.671609 435.584478,166 436.305869,166 L495.694131,166 C496.415522,166 497,166.671609 497,167.500542 C497,168.328391 496.415522,169 495.694131,169" id="Fill-89" fill="#F1EFEF"/><path d="M495.694131,178 L436.305869,178 C435.584478,178 435,177.328391 435,176.499458 C435,175.671609 435.584478,175 436.305869,175 L495.694131,175 C496.415522,175 497,175.671609 497,176.499458 C497,177.328391 496.415522,178 495.694131,178" id="Fill-91" fill="#F1EFEF"/><path d="M495.694131,186 L436.305869,186 C435.584478,186 435,185.328633 435,184.5 C435,183.672451 435.584478,183 436.305869,183 L495.694131,183 C496.415522,183 497,183.672451 497,184.5 C497,185.328633 496.415522,186 495.694131,186" id="Fill-93" fill="#F1EFEF"/><path d="M495.694131,195 L436.305869,195 C435.584478,195 435,194.328391 435,193.500542 C435,192.671609 435.584478,192 436.305869,192 L495.694131,192 C496.415522,192 497,192.671609 497,193.500542 C497,194.328391 496.415522,195 495.694131,195" id="Fill-95" fill="#F1EFEF"/><path d="M495.694131,204 L436.305869,204 C435.584478,204 435,203.328391 435,202.499458 C435,201.671609 435.584478,201 436.305869,201 L495.694131,201 C496.415522,201 497,201.671609 497,202.499458 C497,203.328391 496.415522,204 495.694131,204" id="Fill-97" fill="#F1EFEF"/><path d="M503.403336,286 L443.597601,286 C442.161986,286 441,284.839851 441,283.407442 L441,253.592558 C441,252.161084 442.161986,251 443.597601,251 L503.403336,251 C504.837077,251 506,252.161084 506,253.592558 L506,283.407442 C506,284.839851 504.837077,286 503.403336,286" id="Fill-99" fill="#E1E1E1"/><path d="M483,267.999534 C483,272.970094 478.970094,277 473.999534,277 C469.028975,277 465,272.970094 465,267.999534 C465,263.028975 469.028975,259 473.999534,259 C478.970094,259 483,263.028975 483,267.999534" id="Fill-101" fill="#F1EFEF"/><path d="M477.825409,268.928928 L473.017014,273.821157 C472.641119,274.203605 472,273.931815 472,273.392117 L472,263.607658 C472,263.066989 472.641119,262.79714 473.017014,263.178618 L477.825409,268.070847 C478.058197,268.307693 478.058197,268.692082 477.825409,268.928928" id="Fill-103" fill="#E1E1E1"/><path d="M472.395872,264 L402.604128,264 C401.166266,264 400,262.817848 400,261.360401 L400,225.639599 C400,224.181199 401.166266,223 402.604128,223 L472.395872,223 C473.834674,223 475,224.181199 475,225.639599 L475,261.360401 C475,262.817848 473.834674,264 472.395872,264" id="Fill-105" fill="#F1EFEF"/><path d="M448,243.5 C448,249.299649 443.298705,254 437.5,254 C431.700351,254 427,249.299649 427,243.5 C427,237.700351 431.700351,233 437.5,233 C443.298705,233 448,237.700351 448,243.5" id="Fill-107" fill="#E1E1E1"/><path d="M441.796849,243.467448 L436.186982,248.804652 C435.748756,249.221578 435,248.927061 435,248.337106 L435,237.662699 C435,237.073664 435.748756,236.778227 436.186982,237.195153 L441.796849,242.531436 C442.067717,242.790979 442.067717,243.209746 441.796849,243.467448" id="Fill-109" fill="#F1EFEF"/></g></g></g><g id="Side Decoration" transform="translate(355.000000, 55.994000) scale(1 1)"><g id="Side Decoration/Wavy Leaves Copy" stroke="none" stroke-width="1" fill="none" fill-rule="evenodd"><path d="M234.980996,515.403988 C234.980996,515.403988 290.172996,490.801988 277.584996,484.102988 C264.997996,477.403988 265.784996,476.223988 278.371996,464.028988 C290.959996,451.835988 285.059996,449.868988 276.011996,445.934988 C266.964996,442.000988 281.971996,434.527988 288.599996,431.380988 C295.227996,428.233988 317.314996,421.152988 302.760996,408.958988 C288.206996,396.764988 334.622996,400.697988 317.314996,383.783988 C300.006996,366.868988 278.105996,392.437988 278.105996,392.437988 C278.105996,392.437988 258.874996,368.944988 250.134996,412.749988 C250.134996,412.749988 227.830996,397.209988 234.980996,432.953988 C234.980996,432.953988 216.693996,430.199988 229.464996,471.109988 C229.464996,471.109988 215.146996,471.531988 221.937996,492.621988 C223.921996,498.784988 226.990996,504.545988 230.828996,509.760988 L234.980996,515.403988 Z" id="Fill-20" fill="#83BB9E"/><path d="M234.980496,515.903988 C234.710496,515.903988 234.488496,515.688988 234.480496,515.417988 C234.476496,515.222988 234.029496,495.696988 240.795496,471.499988 C247.044496,449.153988 260.897496,418.125988 291.403496,397.213988 C291.631496,397.057988 291.942496,397.115988 292.099496,397.343988 C292.254496,397.571988 292.196496,397.882988 291.969496,398.038988 C261.720496,418.773988 247.973496,449.561988 241.767496,471.738988 C235.035496,495.796988 235.475496,515.196988 235.480496,515.389988 C235.488496,515.665988 235.270496,515.895988 234.994496,515.903988 L234.980496,515.903988 Z" id="Fill-21" fill="#000"/><path d="M277.584996,484.602788 C277.505996,484.602788 277.424996,484.583788 277.350996,484.543788 C271.215996,481.279788 268.418996,479.398788 268.063996,476.885788 C267.640996,473.880788 270.998996,470.476788 278.023996,463.670788 C283.246996,458.611788 285.473996,455.133788 285.033996,452.725788 C284.569996,450.182788 281.085996,448.675788 276.675996,446.767788 L275.812996,446.393788 C273.762996,445.501788 272.711996,444.339788 272.688996,442.939788 C272.621996,438.885788 281.614996,434.143788 288.384996,430.928788 C288.634996,430.811788 288.932996,430.916788 289.050996,431.165788 C289.169996,431.415788 289.063996,431.713788 288.813996,431.831788 C278.734996,436.617788 273.645996,440.349788 273.688996,442.922788 C273.704996,443.895788 274.553996,444.755788 276.210996,445.476788 L277.072996,445.849788 C281.757996,447.876788 285.457996,449.477788 286.017996,452.545788 C286.529996,455.350788 284.278996,459.002788 278.719996,464.388788 C272.124996,470.777788 268.699996,474.228788 269.054996,476.745788 C269.346996,478.814788 272.113996,480.624788 277.819996,483.661788 C278.063996,483.790788 278.156996,484.093788 278.026996,484.337788 C277.936996,484.506788 277.763996,484.602788 277.584996,484.602788" id="Fill-22" fill="#000"/><path d="M234.981396,515.903988 C234.827396,515.903988 234.676396,515.833988 234.578396,515.699988 L230.425396,510.056988 C226.415396,504.607988 223.399396,498.792988 221.461396,492.774988 C218.891396,484.793988 218.988396,478.763988 221.750396,474.853988 C224.018396,471.643988 227.398396,470.859988 228.805396,470.669988 C224.995396,458.290988 221.818396,442.368988 227.733396,435.469988 C230.103396,432.706988 233.060396,432.403988 234.364396,432.412988 C232.002396,420.199988 232.883396,412.647988 236.985396,409.960988 C242.091396,406.613988 250.082396,412.103988 250.420396,412.339988 C250.647396,412.497988 250.703396,412.808988 250.545396,413.035988 C250.387396,413.261988 250.075396,413.317988 249.849396,413.159988 C249.772396,413.106988 242.074396,407.819988 237.532396,410.797988 C233.788396,413.251988 233.075396,420.879988 235.471396,432.855988 C235.502396,433.014988 235.455396,433.179988 235.343396,433.297988 C235.231396,433.415988 235.068396,433.469988 234.907396,433.447988 C234.757396,433.426988 231.198396,432.949988 228.479396,436.136988 C225.336396,439.820988 223.040396,448.851988 229.942396,470.960988 C229.989396,471.109988 229.962396,471.271988 229.872396,471.399988 C229.782396,471.526988 229.636396,471.604988 229.481396,471.609988 C229.437396,471.610988 225.127396,471.793988 222.558396,475.442988 C219.997396,479.082988 219.947396,484.810988 222.413396,492.467988 C224.318396,498.382988 227.285396,504.101988 231.231396,509.464988 L235.383396,515.107988 C235.547396,515.329988 235.499396,515.642988 235.277396,515.806988 C235.188396,515.871988 235.084396,515.903988 234.981396,515.903988" id="Fill-23" fill="#000"/><path d="M224.287096,515.403988 C223.951096,515.858988 221.945096,508.313988 202.739096,500.388988 C183.534096,492.464988 189.477096,481.426988 203.910096,481.992988 C218.344096,482.559988 178.439096,470.140988 184.665096,462.182988 C190.892096,454.224988 201.002096,461.899988 202.739096,459.918988 C204.476096,457.937988 177.024096,442.937988 195.420096,432.465988 C213.816096,421.994988 219.759096,441.737988 222.023096,454.224988 C222.023096,454.224988 250.890096,444.635988 233.060096,479.162988 C233.060096,479.162988 257.117096,470.986988 224.287096,515.403988" id="Fill-24" fill="#83BB9E"/><path d="M224.287596,515.903988 C224.279596,515.903988 224.270596,515.903988 224.262596,515.903988 C223.986596,515.889988 223.774596,515.654988 223.787596,515.379988 C225.737596,475.557988 206.041596,444.191988 205.842596,443.879988 C205.693596,443.646988 205.761596,443.337988 205.994596,443.188988 C206.227596,443.039988 206.537596,443.108988 206.684596,443.340988 C206.886596,443.655988 226.752596,475.277988 224.786596,515.427988 C224.773596,515.695988 224.552596,515.903988 224.287596,515.903988" id="Fill-25" fill="#000"/><path d="M214.400896,506.793688 C214.308896,506.793688 214.216896,506.768688 214.132896,506.715688 C210.888896,504.657688 206.990896,502.684688 202.547896,500.851688 C193.840896,497.258688 189.223896,492.457688 190.196896,488.006688 C191.110896,483.824688 196.627896,481.203688 203.929896,481.493688 C204.205896,481.504688 204.420896,481.736688 204.409896,482.012688 C204.399896,482.289688 204.175896,482.509688 203.890896,482.492688 C197.192896,482.226688 191.968896,484.585688 191.173896,488.219688 C190.313896,492.158688 194.707896,496.534688 202.929896,499.926688 C207.425896,501.781688 211.375896,503.781688 214.669896,505.871688 C214.901896,506.019688 214.971896,506.328688 214.823896,506.561688 C214.728896,506.711688 214.566896,506.793688 214.400896,506.793688" id="Fill-26" fill="#000"/><path d="M227.949196,510.835188 C227.849196,510.835188 227.749196,510.805188 227.661196,510.744188 C227.436196,510.585188 227.382196,510.273188 227.541196,510.047188 C241.522196,490.211188 242.198196,483.023188 240.303196,480.486188 C238.389196,477.925188 233.272196,479.619188 233.221196,479.637188 C233.026196,479.701188 232.814196,479.644188 232.681196,479.489188 C232.549196,479.335188 232.523196,479.115188 232.616196,478.934188 C237.711196,469.068188 239.440196,461.947188 237.756196,457.768188 C237.043196,455.999188 235.689196,454.764188 233.730196,454.097188 C228.981196,452.481188 222.248196,454.676188 222.180196,454.699188 C221.918196,454.784188 221.635196,454.644188 221.548196,454.382188 C221.461196,454.120188 221.603196,453.837188 221.865196,453.750188 C222.154196,453.655188 228.981196,451.425188 234.052196,453.151188 C236.299196,453.916188 237.857196,455.343188 238.684196,457.395188 C240.421196,461.707188 238.851196,468.765188 234.017196,478.386188 C235.829196,477.979188 239.363196,477.559188 241.102196,479.885188 C244.150196,483.960188 239.863196,494.302188 228.358196,510.623188 C228.261196,510.761188 228.106196,510.835188 227.949196,510.835188" id="Fill-27" fill="#000"/><path d="M230.263696,483.507088 C230.151696,483.507088 230.037696,483.469088 229.944696,483.392088 C229.732696,483.216088 229.702696,482.901088 229.878696,482.688088 C229.930696,482.625088 235.136696,476.275088 236.698696,469.660088 C236.762696,469.390088 237.029696,469.227088 237.299696,469.288088 C237.568696,469.351088 237.735696,469.621088 237.671696,469.889088 C236.054696,476.736088 230.868696,483.060088 230.648696,483.326088 C230.550696,483.445088 230.407696,483.507088 230.263696,483.507088" id="Fill-28" fill="#000"/><path d="M222.023396,458.912288 C222.006396,458.912288 221.989396,458.911288 221.973396,458.910288 C221.698396,458.882288 221.498396,458.637288 221.525396,458.362288 C221.716396,456.460288 221.487396,453.945288 220.845396,450.885288 C220.788396,450.615288 220.961396,450.350288 221.231396,450.293288 C221.503396,450.238288 221.767396,450.410288 221.823396,450.680288 C222.487396,453.840288 222.721396,456.458288 222.520396,458.462288 C222.494396,458.720288 222.277396,458.912288 222.023396,458.912288" id="Fill-29" fill="#000"/><path d="M237.185496,441.481688 C236.998496,441.481688 236.819496,441.377688 236.733496,441.197688 C234.865496,437.295688 233.294496,425.007688 233.228496,424.486688 C233.193496,424.212688 233.387496,423.961688 233.661496,423.927688 C233.940496,423.897688 234.185496,424.086688 234.220496,424.360688 C234.236496,424.486688 235.836496,437.008688 237.636496,440.765688 C237.755496,441.014688 237.649496,441.313688 237.400496,441.432688 C237.331496,441.465688 237.257496,441.481688 237.185496,441.481688" id="Fill-30" fill="#000"/><path d="M274.338396,398.126688 C274.284396,398.126688 274.229396,398.117688 274.174396,398.099688 C273.913396,398.008688 273.775396,397.723688 273.865396,397.462688 C274.971396,394.270688 283.773396,386.356688 284.148396,386.021688 C284.352396,385.836688 284.669396,385.854688 284.854396,386.060688 C285.038396,386.265688 285.021396,386.581688 284.815396,386.766688 C284.725396,386.846688 275.832396,394.840688 274.811396,397.790688 C274.739396,397.997688 274.545396,398.126688 274.338396,398.126688" id="Fill-31" fill="#000"/></g></g><g transform="translate(-12.792927, -178.006000) scale(1 1)" id="Master/Character/Standing"><defs><polygon id="mastercharacterstanding-path-1" points="0 -0.000126433058 71.516 -0.000126433058 71.516 59.6565 0 59.6565"/></defs><g id="Master/Character/Standing" stroke="none" stroke-width="1" fill="none" fill-rule="evenodd"><g id="Lower Body/Standing" transform="translate(47.000000, 444.000000) scale(1 1)"><g id="Lower Body/Standing/Walking Shoes" stroke="none" stroke-width="1" fill="none" fill-rule="evenodd"><g id="Group" transform="translate(133.000041, 42.999700)"><path d="M166.830759,260.6316 C160.833759,256.9566 133.184759,246.6776 132.555759,238.3066 C131.579759,225.3146 131.612759,204.5426 131.785759,189.6026 C123.730759,190.4516 114.457759,191.3366 104.595759,192.1006 L115.757759,238.5066 C116.297759,242.6936 117.024759,243.0946 112.472759,252.5926 C108.158759,261.5896 118.710759,263.0136 118.710759,263.0136 L166.113759,263.132605 C166.860759,263.1346 167.468759,262.5286 167.468759,261.7816 C167.468759,261.3116 167.231759,260.8766 166.830759,260.6316 M55.399759,260.6316 C49.403759,256.9566 21.522759,247.9376 24.290759,240.0126 C27.144759,231.8366 39.066759,209.7836 47.360759,194.0976 C37.158759,193.8576 27.610759,193.1716 19.429759,191.8656 L8.42575899,236.0166 C7.13275899,240.3586 4.72875899,242.5956 0.792758991,252.6106 C-2.85724101,261.8976 7.28075899,263.0136 7.28075899,263.0136 L54.683759,263.132605 C55.431759,263.1346 56.037759,262.5286 56.037759,261.7816 C56.037759,261.3116 55.800759,260.8766 55.399759,260.6316" id="Skin" fill="#d8b48d"/><path d="M166.830759,260.6316 C165.091759,259.5666 148.762759,250.8816 144.040759,249.2326 C140.470759,256.9376 117.199759,253.3076 115.006759,246.9106 C114.977759,246.9816 112.251759,252.5396 112.223759,252.6106 C108.573759,261.8976 118.710759,263.0136 118.710759,263.0136 L166.114759,263.132605 C166.860759,263.1346 167.468759,262.5286 167.468759,261.7816 C167.468759,261.3116 167.231759,260.8766 166.830759,260.6316 M55.399759,260.6316 C53.660759,259.5666 37.544759,251.5736 32.822759,249.9246 C29.253759,257.6296 8.39875899,253.4806 3.35775899,246.6296 C3.32975899,246.6996 0.820758991,252.5396 0.792758991,252.6106 C-2.85724101,261.8976 7.28075899,263.0136 7.28075899,263.0136 L54.683759,263.132605 C55.431759,263.1346 56.037759,262.5286 56.037759,261.7816 C56.037759,261.3116 55.800759,260.8766 55.399759,260.6316" id="Shoes" fill="#53627B"/><path d="M121.552659,0.5004 C121.552659,0.5004 146.506479,97.1407679 144.540614,133.720932 C142.574749,170.301096 136.032259,232.3044 136.032259,232.3044 L104.595759,232.3044 C104.595759,232.3044 107.234659,150.6144 105.202659,135.7144 C103.170659,120.8144 88.948659,86.2744 88.948659,86.2744 L35.444659,232.5944 L6.99965899,228.5304 C6.99965899,228.5304 32.735659,127.5874 32.735659,99.1434 C32.735659,70.6974 35.444659,0.5004 35.444659,0.5004 L121.552659,0.5004 Z" id="Pants" fill="#F9E272"/><path d="M32.735759,99.643 C33.011759,99.643 33.235759,99.419 33.235759,99.143 C33.235759,72.264 35.687759,7.26 35.925759,1 L121.552759,1 C121.828759,1 122.052759,0.777 122.052759,0.5 C122.052759,0.224 121.828759,0 121.552759,0 L35.444759,0 C35.175759,0 34.955759,0.212 34.944759,0.481 C34.917759,1.183 32.235759,71.013 32.235759,99.143 C32.235759,99.419 32.459759,99.643 32.735759,99.643 L32.735759,99.643 Z M3.06265899,246.2271 C3.28265899,246.0631 3.59765899,246.1091 3.76065899,246.3341 C6.97565899,250.7021 17.622659,254.2341 25.251659,253.4691 C27.824659,253.2111 31.147659,252.3491 32.368659,249.7151 C32.477659,249.4801 32.742659,249.3651 32.987659,249.4531 C37.804659,251.1341 54.066659,259.2291 55.660659,260.2051 C55.896659,260.3491 55.970659,260.6571 55.826659,260.8921 C55.731659,261.0471 55.567659,261.1321 55.399659,261.1321 C55.310659,261.1321 55.220659,261.1081 55.139659,261.0581 C53.601659,260.1161 38.288659,252.4911 33.065659,250.5451 C31.833659,252.7271 29.179659,254.0801 25.352659,254.4651 C17.290659,255.2731 6.40365899,251.6121 2.95565899,246.9251 C2.79165899,246.7041 2.83965899,246.3901 3.06265899,246.2271 Z M115.030659,246.4141 C115.234659,246.4241 115.412659,246.5551 115.479659,246.7491 C116.533659,249.8241 123.595659,252.6471 131.221659,253.0421 C137.644659,253.3681 142.267659,251.8711 143.586659,249.0221 C143.702659,248.7711 144.001659,248.6621 144.250659,248.7781 C144.501659,248.8941 144.609659,249.1921 144.494659,249.4421 C143.125659,252.3961 138.850659,254.0871 132.902659,254.0871 C132.339659,254.0871 131.761659,254.0711 131.169659,254.0411 C124.643659,253.7031 117.244659,251.4061 115.015659,248.0361 C114.814659,248.4461 114.523659,249.0401 114.103659,249.9011 C113.421659,251.2941 112.727659,252.7121 112.680659,252.8141 C112.565659,253.0611 112.276659,253.1751 112.027659,253.0681 C111.778659,252.9621 111.658659,252.6781 111.758659,252.4261 C111.774659,252.3851 111.845659,252.2401 113.204659,249.4611 C113.860659,248.1201 114.505659,246.8031 114.550659,246.7071 C114.636659,246.5201 114.816659,246.4181 115.030659,246.4141 Z M122.823431,241.179266 L122.914659,241.1911 C123.183659,241.2551 123.350659,241.5231 123.287659,241.7931 L123.287659,241.7931 L122.906659,243.4211 C122.515659,245.0961 123.007659,246.8231 124.224659,248.0391 C124.419659,248.2341 124.419659,248.5501 124.224659,248.7461 C124.126659,248.8431 123.998659,248.8921 123.870659,248.8921 C123.742659,248.8921 123.614659,248.8431 123.517659,248.7461 C122.054659,247.2841 121.462659,245.2091 121.932659,243.1931 L121.932659,243.1931 L122.313659,241.5641 C122.376659,241.2961 122.638659,241.1311 122.914659,241.1911 Z M11.3935726,241.179267 L11.482659,241.1911 C11.752659,241.2551 11.919659,241.5231 11.856659,241.7921 L11.856659,241.7921 L11.477659,243.4201 C11.084659,245.0951 11.576659,246.8221 12.793659,248.0391 C12.988659,248.2341 12.988659,248.5501 12.793659,248.7461 C12.695659,248.8431 12.567659,248.8921 12.439659,248.8921 C12.312659,248.8921 12.184659,248.8431 12.086659,248.7461 C10.623659,247.2831 10.031659,245.2071 10.502659,243.1921 L10.502659,243.1921 L10.882659,241.5651 C10.945659,241.2961 11.214659,241.1311 11.482659,241.1911 Z M94.001759,47.601 L94.990759,47.744 C94.990759,47.744 92.109759,67.649 89.432759,86.138 C89.924759,87.337 103.706759,121.045 105.697759,135.647 C105.735759,135.92 105.543759,136.172 105.270759,136.209 C104.997759,136.244 104.744759,136.056 104.707759,135.782 C102.963759,122.997 91.3623438,93.6265676 88.4943438,86.4995676 C81.5845768,107.774746 78.1040267,118.587002 78.0526934,118.936335 C78.0446934,118.991002 64.3479748,155.98149 36.9625375,229.9078 C36.9265375,230.1558 36.7125375,230.3348 36.4685375,230.3348 C36.4445375,230.3348 35.9985375,230.337161 35.9735375,230.3348 C35.7005375,230.2948 35.9325375,230.0348 35.9735375,229.7618 L35.9735375,229.7618 L83.0273027,100.868708 C83.7205592,96.0818378 86.1771872,91.6782189 87.2509356,86.138 C90.7865569,67.8952565 94.001759,47.601 94.001759,47.601 L94.001759,47.601 Z" id="Fill-9" fill="#000"/></g></g></g><g id="Upper Body" transform="translate(8.000000, 189.000000) scale(1 1)"><g id="Upper Body/Working" stroke="none" stroke-width="1" fill="none" fill-rule="evenodd"><path d="M309.7378,252.8214 C308.6218,256.0324 300.0308,257.0394 293.4438,257.3364 C293.9308,241.0084 294.5558,225.9074 294.5558,225.9074 C294.5558,225.9074 311.5788,247.5314 309.7378,252.8214 M198.2368,241.5414 C203.6998,234.0044 212.6638,228.2084 212.6638,228.2084 C212.6638,228.2084 211.9008,235.3924 210.7778,245.0494 C203.5618,245.9244 194.8878,246.1614 198.2368,241.5414 M262.3508,184.2714 L251.3088,207.5054 L237.2768,184.7314 C237.2768,184.7314 229.8218,186.0084 219.6578,190.3464 L216.2998,191.8504 C203.0168,198.0834 186.3378,209.3414 175.3448,229.0614 C154.4878,266.4794 182.2178,277.9274 206.5728,277.8094 C206.0588,281.2844 205.5528,284.4534 205.0718,287.0964 C201.8518,304.8094 205.0718,305.5004 205.0718,305.5004 L292.9458,305.5004 C292.9458,305.5004 299.9722,306.397312 298.8222,297.195312 C298.5632,295.122312 298.7792,293.1504 298.8222,287.0964 C338.789062,291.005859 334.2758,259.1564 334.2758,259.1564 C325.5428,184.2714 262.3508,184.2714 262.3508,184.2714 Z" id="Sweater" fill="#94B1EB"/><polygon id="Laptop" fill="#F1EFEF" points="295.9927 215.0607 282.0797 252.2737 282.0207 252.2587 243.4967 252.2587 243.4967 253.2587 279.3647 259.5367 334.0617 259.5367 354.1477 215.0607"/><path d="M299.4468,259.5363 L278.9688,259.5363 L253.9818,255.1633 C262.2028,265.1363 276.6118,262.4843 276.6118,262.4843 C284.3618,268.7093 291.7418,274.2273 298.2168,278.0773 C298.6418,267.4183 299.5398,262.8073 299.4468,259.5363 L299.4468,259.5363 Z M275.9208,251.8843 C276.7008,251.9283 277.0218,250.9053 276.3588,250.4923 C274.3818,249.2623 271.2918,247.4883 267.6068,245.8423 C269.9868,245.8443 271.4088,245.6063 270.2888,244.8863 C265.6968,241.9293 251.0988,241.5413 251.0988,241.5413 C251.0658,241.5513 251.0408,241.5603 251.0088,241.5703 C250.0518,241.5433 249.0968,241.5463 248.1508,241.6213 C233.7388,242.7753 218.7178,247.9923 218.7178,247.9923 L217.7858,267.6603 C217.7858,267.6603 243.5718,253.5813 249.8138,252.0543 C254.6988,250.8573 269.6488,251.5333 275.9208,251.8843 L275.9208,251.8843 Z M262.3508,184.2713 L257.350561,182.2013 L257.350561,172.9993 L243.549561,172.9993 L243.549561,182.6613 L237.2768,184.7313 L251.3088,207.5053 L262.3508,184.2713 Z" id="Skin" fill="#d8b48d"/><path d="M294.6851,287.8634 C294.5541,287.8634 294.4221,287.8494 294.2891,287.8234 C293.7061,287.7094 293.2561,287.3954 292.9531,286.8934 C291.8441,285.0614 293.0251,281.0724 293.9731,277.8664 C294.1291,277.3404 294.2751,276.8484 294.3941,276.4144 C294.4671,276.1474 294.7451,275.9934 295.0091,276.0644 C295.2761,276.1384 295.4321,276.4144 295.3591,276.6794 C295.2371,277.1204 295.0901,277.6174 294.9321,278.1504 C294.1341,280.8464 292.9281,284.9224 293.8081,286.3764 C293.9641,286.6344 294.1791,286.7824 294.4821,286.8424 C294.7971,286.9014 295.0791,286.8234 295.3711,286.5864 C297.6491,284.7334 299.0991,274.7884 299.2501,259.9824 C299.2531,259.7084 299.4771,259.4874 299.7501,259.4874 L299.7551,259.4874 C300.0321,259.4904 300.2531,259.7164 300.25013,259.9924 C300.1591,268.9984 299.4841,284.5294 296.0011,287.3624 C295.5911,287.6954 295.1501,287.8634 294.6851,287.8634" id="Fill-9" fill="#000"/><path d="M299.2779,287.8341 C298.1339,287.8341 296.9589,287.8181 295.7519,287.7871 C295.4749,287.7791 295.2569,287.5501 295.263736,287.2741 C295.2719,286.9991 295.5159,286.7791 295.7769,286.7871 C306.6269,287.0711 314.8199,286.0821 320.1729,283.8541 C320.4279,283.7521 320.7199,283.8681 320.8269,284.1231 C320.9319,284.3781 320.8119,284.6711 320.5569,284.7771 C315.6749,286.8091 308.5279,287.8341 299.2779,287.8341" id="Fill-11" fill="#000"/><path d="M280.9185,258.6349 C280.8915,258.6349 280.8625,258.6329 280.8355,258.6279 L246.6335,252.8529 C246.3605,252.8069 246.1775,252.5489 246.2235,252.2769 C246.2695,252.0039 246.5375,251.8229 246.7995,251.8659 L280.5895,257.5729 L296.0345,214.5349 C296.1065,214.3369 296.2945,214.2039 296.5055,214.2039 L354.6605,214.2039 C354.8305,214.2039 354.9885,214.2899 355.0805,214.4329 C355.1725,214.5749 355.1865,214.7549 355.1165,214.9099 L339.8015,248.8239 C339.6875,249.0759 339.3915,249.1869 339.1395,249.0739 C338.8885,248.9599 338.7755,248.6639 338.8895,248.4119 L353.8865,215.2039 L296.8565,215.2039 L281.3895,258.3039 C281.3165,258.5049 281.1265,258.6349 280.9185,258.6349" id="Fill-13" fill="#000"/><path d="M237.2368,257.8361 C237.0728,257.8361 236.9108,257.7551 236.8158,257.6061 C236.6668,257.3731 236.7348,257.0641 236.9668,256.9151 C241.6468,253.9221 249.3488,251.6681 249.6748,251.5731 C254.6538,250.3561 269.7068,251.0361 275.9488,251.3851 C276.1248,251.3931 276.1828,251.2791 276.2038,251.2101 C276.2218,251.1531 276.2468,251.0121 276.0938,250.9171 C271.3698,247.9791 259.1948,241.2471 248.1908,242.1201 C248.0638,242.1331 234.4678,243.5121 225.6658,246.3191 C225.3988,246.4011 225.1208,246.2571 225.0368,245.9951 C224.9528,245.7321 225.0978,245.4501 225.3608,245.3661 C234.2648,242.5261 247.9648,241.1391 248.1008,241.1251 C259.4268,240.2181 271.8138,247.0771 276.6228,250.0671 C277.1188,250.3761 277.3328,250.9561 277.1568,251.5121 C276.9818,252.0661 276.4608,252.4251 275.8918,252.3831 C269.6938,252.0371 254.7578,251.3581 249.9328,252.5391 C249.8748,252.5571 242.0628,254.8431 237.5068,257.7571 C237.4228,257.8111 237.3298,257.8361 237.2368,257.8361" id="Fill-15" fill="#000"/><path d="M273.6284,252.0822 C273.5004,252.0822 273.3724,252.0332 273.2744,251.9362 C267.0384,245.7022 256.7364,245.6232 256.6334,245.6232 C256.3574,245.6232 256.1334,245.3992 256.1334,245.1232 C256.1334,244.8472 256.3574,244.6232 256.6334,244.6232 C257.0714,244.6232 267.4474,244.6972 273.9824,251.2282 C274.1774,251.4242 274.1774,251.7402 273.9824,251.9362 C273.8844,252.0332 273.7564,252.0822 273.6284,252.0822" id="Fill-17" fill="#000"/><path d="M269.5611,252.0822 C269.3741,252.0822 269.1951,251.9772 269.1091,251.7962 C267.6761,248.7742 259.3251,248.3882 256.2291,248.5042 C255.9631,248.5062 255.7221,248.2972 255.7111,248.0212 C255.7021,247.7452 255.9171,247.5142 256.1941,247.5042 C256.6761,247.4912 268.0061,247.1362 270.0131,251.3682 C270.1311,251.6172 270.0251,251.9152 269.7751,252.0342 C269.7071,252.0662 269.6331,252.0822 269.5611,252.0822" id="Fill-19" fill="#000"/><path d="M267.6504,246.3431 C267.3274,246.3361 267.1194,246.1281 267.1194,245.8431 C267.1194,245.5661 267.3434,245.3431 267.6194,245.3431 L267.6474,245.3431 C268.8494,245.3431 269.5104,245.2771 269.8694,245.2141 C265.2834,242.4491 251.2294,242.0451 251.0854,242.0411 C250.8104,242.0331 250.5924,241.8041 250.599236,241.5271 C250.6074,241.2561 250.8284,241.0411 251.0994,241.0411 L251.1124,241.0411 C251.7144,241.0581 265.9034,241.4671 270.5594,244.4661 C271.0614,244.7891 271.2604,245.1411 271.1504,245.5131 C270.9964,246.0381 270.3724,246.3431 267.6504,246.3431 L267.6504,246.3431 Z" id="Fill-21" fill="#000"/><path d="M210.7788,245.549 C210.7628,245.549 210.7488,245.548 210.7338,245.547 C210.4588,245.523 210.2558,245.28 210.2798,245.005 C212.1458,223.895 213.3678,217.834 213.3808,217.776 C213.4348,217.504 213.7038,217.324 213.9698,217.387 C214.2408,217.443 214.4148,217.706 214.3588,217.977 C214.3468,218.035 213.1348,224.07 211.2758,245.093 C211.2528,245.353 211.0348,245.549 210.7788,245.549" id="Fill-23" fill="#000"/><path d="M220.8765,277.1867 C220.6475,277.1867 220.4245,277.1407 220.2075,277.0467 C215.7955,275.1547 217.5815,251.0167 217.9825,246.2157 L206.3075,246.3427 C194.0445,246.4947 186.5905,242.1567 186.2765,241.9717 C186.0395,241.8327 185.9605,241.5267 186.1005,241.2887 C186.2385,241.0487 186.5465,240.9707 186.7835,241.1097 C186.8575,241.1547 194.4095,245.4817 206.2955,245.3427 L218.5225,245.2097 C218.6715,245.2227 218.7995,245.2667 218.8955,245.3707 C218.9905,245.4737 219.0385,245.6137 219.0255,245.7537 C218.0545,256.8197 217.6225,274.8507 220.6025,276.1277 C221.2015,276.3907 222.0085,275.6777 222.5745,275.0347 C224.2705,273.1147 225.0635,269.4957 224.9355,264.2787 C224.9285,264.0017 225.1475,263.7727 225.4225,263.7657 L225.4355,263.7657 C225.7055,263.7657 225.9285,263.9817 225.9355,264.2527 C226.0695,269.7307 225.1915,273.5807 223.3245,275.6967 C222.4495,276.6877 221.6295,277.1867 220.8765,277.1867" id="Fill-25" fill="#000"/><path d="M207.5181,278.0636 C199.2581,278.0636 192.8911,276.9076 188.5181,275.7126 C181.4761,273.7886 178.0051,271.4086 177.8621,271.3076 C177.6351,271.1506 177.5791,270.8386 177.7371,270.6126 C177.8931,270.3866 178.2061,270.3316 178.4321,270.4866 C178.5701,270.5826 192.4941,279.9596 220.5441,276.1546 C220.8071,276.1046 221.0691,276.3076 221.1071,276.5826 C221.1441,276.8556 220.9531,277.1076 220.6791,277.1446 C215.8661,277.7986 211.4741,278.0636 207.5181,278.0636" id="Fill-27" fill="#000"/><path d="M272.3277,263.2902 C267.7267,263.2902 260.4197,262.3302 255.0207,257.0472 C254.8237,256.8532 254.8197,256.5372 255.0137,256.3402 C255.2057,256.1422 255.5217,256.1402 255.7207,256.3322 C263.7847,264.2242 276.3967,262.0182 276.5207,261.9922 C276.8037,261.9452 277.0537,262.1232 277.1027,262.3942 C277.1537,262.6652 276.9737,262.9262 276.7027,262.9762 C276.6547,262.9842 274.9207,263.2902 272.3277,263.2902" id="Fill-29" fill="#000"/><path d="M251.3091,208.005 C251.1361,208.005 250.9751,207.915 250.8831,207.768 L236.8511,184.994 C236.7061,184.759 236.7801,184.45 237.0141,184.306 C237.2491,184.163 237.5571,184.233 237.7031,184.469 L251.2521,206.46 L261.9001,184.057 C262.0181,183.807 262.3181,183.701 262.5661,183.82 C262.8151,183.939 262.9211,184.236 262.8021,184.486 L251.7601,207.72 C251.6821,207.885 251.5191,207.994 251.3361,208.004 C251.3271,208.005 251.3181,208.005 251.3091,208.005" id="Fill-31" fill="#000"/></g></g><g id="Hair" transform="translate(107.000000, 209.000000) scale(1 1)"><g id="Hair/Short Textured Crop" stroke="none" stroke-width="1" fill="none" fill-rule="evenodd"><g id="Head" transform="translate(132.000000, 111.000000)"><path d="M44.1789,24.3663 C44.5879,35.6913 33.3599,45.0883 22.4569,45.0883 C11.5539,45.0883 0.4939,36.9643 0.0189,25.3903 C-0.4461,14.0673 7.7449,1.3583 15.9329,0.2613 C32.6079,-1.9747 43.6789,10.5083 44.1789,24.3663" id="Fill-1" fill="#000"/><path d="M22.4567,44.088 C12.4757,44.088 1.4787,36.559 1.0177,25.35 C0.5797,14.678 8.3147,2.291 16.0657,1.252 C17.3127,1.085 18.5577,1 19.7657,1 C34.4247,1 42.7697,13.058 43.1797,24.402 C43.3447,28.984 41.4627,33.553 37.8807,37.268 C33.7607,41.538 27.9947,44.088 22.4567,44.088" id="Fill-4" fill="#d8b48d"/></g><path d="M141.7458,109.127 C140.8178,107.501 137.5758,107 137.5758,107 C138.7738,108.045 138.3048,109.842 137.6748,111.205 C132.8228,114.292 128.7368,119.901 128.1178,126.998 C126.3458,147.293 140.391673,151.494394 140.391673,151.494394 C140.391673,149.835124 138.6988,144.370665 138.6988,144.370665 C136.2828,143.887665 133.3838,141.15 135.1548,139.217 C136.9268,137.284 138.6988,140.345 138.6988,140.345 L139.6128,140.345 C137.7408,135.634 139.0208,126.492 139.0208,126.492 C141.5698,130.255 141.4458,131.857 141.4458,131.857 C143.2508,124.581 144.6638,123.523 144.6638,123.523 C163.5098,124.651 165.3498,117.314 165.3498,117.314 C165.3498,117.314 166.8208,119.769 168.1238,122.844 C169.9728,127.208 176.189747,133.544 176.189747,133.544 C176.189747,133.544 178.9628,120.912 165.5388,110.423 C160.6868,106.632 150.2968,105.696 141.7458,109.127 Z" id="Hair" fill="#372310"/><path d="M134.912283,138.748262 C136.051262,137.624854 137.308292,137.962168 138.393075,139.118896 C138.539236,139.27475 138.669037,139.430063 138.781103,139.57645 L138.854,139.674 L138.828121,139.59031 C138.474657,138.375531 138.257591,136.91999 138.157837,135.265944 L138.133525,134.809951 C138.037901,132.753706 138.117806,130.556541 138.309243,128.408266 L138.38208,127.649324 C138.394504,127.528809 138.407035,127.411388 138.419622,127.297218 L138.52563,126.42267 C138.589113,125.969262 139.178002,125.832534 139.434766,126.211586 C140.295793,127.48269 140.914869,128.593696 141.328297,129.552502 L141.454,129.858 L141.527568,129.597061 C142.091495,127.61262 142.644856,126.086893 143.177069,124.960378 L143.283227,124.74038 C143.749508,123.794727 144.117072,123.30774 144.364117,123.122762 C144.458814,123.051857 144.575584,123.016825 144.693673,123.023893 C153.335076,123.541112 159.025611,122.346141 162.35935,120.064819 C163.316428,119.409879 163.99473,118.715683 164.44414,118.028823 C164.703531,117.63238 164.828346,117.337807 164.864818,117.192374 C164.973167,116.760334 165.549763,116.674928 165.778701,117.057009 L165.987417,117.415709 L166.246713,117.875781 C166.337389,118.039003 166.432119,118.211875 166.530323,118.393754 C167.091098,119.432337 167.651767,120.552857 168.175416,121.714456 L168.3832,122.182249 L168.584182,122.648939 C168.981992,123.587848 169.61562,124.679529 170.449025,125.89024 C170.991447,126.678232 171.610354,127.504836 172.291276,128.358308 C173.222106,129.525018 174.220461,130.682815 175.218883,131.778319 L175.72321,132.326165 L176.367811,133.009054 C176.447312,133.091892 176.507525,133.153954 176.546637,133.193815 C176.740039,133.390921 176.737037,133.707489 176.539932,133.90089 C176.342826,134.094292 176.026258,134.09129 175.832857,133.894185 L175.458637,133.504855 C175.163117,133.193787 174.83405,132.840629 174.479786,132.451918 C173.467589,131.341299 172.455325,130.167373 171.509578,128.981966 C170.814796,128.111121 170.182028,127.266005 169.625314,126.45725 C168.756828,125.195575 168.091285,124.048908 167.663426,123.039079 C167.534793,122.735512 167.401425,122.430792 167.263767,122.125427 C166.853259,121.214805 166.419048,120.328976 165.980151,119.489471 L165.508781,118.608418 L165.405,118.422 L165.387956,118.453719 C164.966588,119.144485 164.260364,119.929787 163.180071,120.710139 L162.924092,120.890087 C159.461199,123.25979 153.729993,124.498249 145.194566,124.053504 L144.856,124.034 L144.818694,124.082418 C144.691816,124.248942 144.505863,124.542717 144.270628,125.002391 L144.180123,125.18262 C143.47402,126.614647 142.712751,128.826496 141.93109,131.977389 C141.791572,132.539791 140.995831,132.443701 140.947732,131.915976 L140.946365,131.784063 C140.944286,131.730525 140.936382,131.64903 140.918507,131.538602 C140.87863,131.292241 140.801294,130.990328 140.676618,130.630862 C140.421886,129.896416 140.010321,129.032793 139.413595,128.034813 L139.357,127.942 L139.305296,128.497026 C139.117546,130.603936 139.039196,132.758316 139.132445,134.763497 C139.234905,136.966728 139.540341,138.808671 140.077459,140.160359 C140.197036,140.461282 140.003772,140.785801 139.69864,140.837798 L139.6128,140.845 L138.6988,140.845 C138.520374,140.845 138.355469,140.749919 138.266077,140.595501 L138.163103,140.433725 C138.146696,140.409342 138.128689,140.383045 138.109137,140.355054 C137.977285,140.166298 137.82731,139.977471 137.663649,139.802955 C136.923217,139.013417 136.276207,138.825733 135.613189,139.463038 L135.519,139.559 L135.43641,139.658452 C134.410024,140.99707 136.26237,143.273133 138.610457,143.839272 L138.796819,143.880367 C138.976524,143.916293 139.122175,144.047651 139.176406,144.222704 L139.442896,145.108996 C139.642338,145.78536 139.841786,146.487809 140.028077,147.180437 L140.25465,148.045331 L140.407489,148.661252 C140.717909,149.947344 140.891673,150.915206 140.891673,151.494394 C140.891673,151.770537 140.667815,151.994394 140.391673,151.994394 C140.115531,151.994394 139.891673,151.770537 139.891673,151.494394 C139.891673,150.977174 139.69821,149.951089 139.360144,148.588823 L139.285506,148.291826 C139.215544,148.016757 139.14097,147.732306 139.062396,147.440169 C138.939713,146.984032 138.811121,146.52312 138.680558,146.06825 L138.305,144.793 L138.228059,144.773665 C135.331016,143.995639 133.01369,141.047613 134.688865,138.993328 L134.801247,138.863447 L134.912283,138.748262 Z" id="Hair" fill="#000" fill-rule="nonzero"/><path d="M138.2668,129.1887 C138.2378,129.4637 138.4368,129.7097 138.7118,129.7387 C138.7288,129.7407 138.7468,129.7417 138.7648,129.7417 C139.0168,129.7417 139.2338,129.5507 139.2608,129.2937 C139.3108,128.8247 139.3398,128.3797 139.3608,127.9507 C140.9658,130.6177 140.9478,131.8137 140.9478,131.8187 C140.9278,132.0777 141.1098,132.3087 141.3668,132.3497 C141.3928,132.3547 141.4198,132.3567 141.4468,132.3567 C141.6728,132.3567 141.8748,132.2037 141.9318,131.9767 C142.7838,128.5427 143.5448,126.5317 144.0918,125.3747 C144.1288,125.3007 144.1628,125.2287 144.1968,125.1557 C144.5098,124.5247 144.7428,124.1887 144.8658,124.0357 C145.3848,124.0647 145.8888,124.0857 146.3828,124.1027 C146.5778,124.1097 146.7668,124.1147 146.9578,124.1187 C147.2568,124.1267 147.5508,124.1317 147.8408,124.1347 C148.0468,124.1377 148.2538,124.1397 148.4558,124.1397 C148.7508,124.1397 149.0388,124.1357 149.3248,124.1317 C149.4868,124.1287 149.6538,124.1277 149.8128,124.1247 C150.2308,124.1147 150.6358,124.0977 151.0328,124.0787 C151.1748,124.0717 151.3118,124.0617 151.4518,124.0537 C151.7538,124.0357 152.0498,124.0157 152.3388,123.9927 C152.4438,123.9837 152.5488,123.9757 152.6518,123.9667 C161.0288,123.2377 164.1438,120.3777 165.1918,118.9487 C165.5718,118.4307 165.9038,117.7647 165.8408,117.3127 C165.8408,117.2747 165.8408,117.2387 165.8318,117.2027 C165.8288,117.1927 165.8328,117.1767 165.8288,117.1677 C165.8238,117.1537 165.8128,117.1437 165.8058,117.1297 C165.7478,116.9877 165.6338,116.8687 165.4718,116.8287 C165.2058,116.7627 164.9318,116.9237 164.8658,117.1917 C164.8518,117.2457 163.6748,121.3997 154.5828,122.7327 C154.3578,122.7647 154.1238,122.7947 153.8908,122.8237 C153.7848,122.8367 153.6818,122.8507 153.5748,122.8637 C153.2918,122.8957 153.0008,122.9247 152.7048,122.9527 C152.6298,122.9597 152.5558,122.9657 152.4798,122.9727 C152.1768,122.9997 151.8648,123.0217 151.5478,123.0427 C151.4618,123.0467 151.3758,123.0527 151.2898,123.0577 C150.9818,123.0757 150.6658,123.0897 150.3448,123.1027 C150.2268,123.1067 150.1078,123.1107 149.9878,123.1137 C149.6868,123.1227 149.3818,123.1297 149.0698,123.1337 C148.9008,123.1357 148.7278,123.1347 148.5558,123.1357 C148.2778,123.1357 147.9978,123.1367 147.7108,123.1337 C147.4558,123.1297 147.1918,123.1227 146.9298,123.1157 C146.7048,123.1107 146.4848,123.1067 146.2548,123.0977 C145.8058,123.0817 145.3448,123.0587 144.8738,123.0327 C145.3738,119.9337 143.5808,117.9597 143.5578,117.9357 C143.3678,117.7337 143.0518,117.7247 142.8508,117.9147 C142.6498,118.1037 142.6408,118.4197 142.8288,118.6217 C142.8518,118.6457 144.9908,120.9977 143.3428,124.6297 C143.2758,124.7637 143.2048,124.9097 143.1318,125.0677 C143.1138,125.1027 143.1008,125.1357 143.0808,125.1717 C143.0788,125.1757 143.0788,125.1807 143.0778,125.1847 C142.6188,126.1947 142.0648,127.6747 141.4558,129.8547 C141.0988,128.9637 140.4848,127.7617 139.4348,126.2117 C139.4178,126.1867 139.3938,126.1717 139.3728,126.1517 C139.2598,123.1137 138.4998,121.4547 138.4578,121.3657 C138.3398,121.1167 138.0428,121.0117 137.7928,121.1267 C137.5438,121.2447 137.4368,121.5427 137.5528,121.7927 C137.5648,121.8177 138.7658,124.4577 138.2668,129.1887" id="Combined-Shape" fill="#000"/></g></g><g id="Expression" transform="translate(204.000000, 312.000000) scale(1 1)"><g id="Expression/Misterious" stroke="none" stroke-width="1" fill="none" fill-rule="evenodd"><path d="M68.7251,29.0033 C68.0671,29.0033 67.5341,29.7863 67.5341,30.7513 C67.5341,31.7163 68.0671,32.4993 68.7251,32.4993 C69.3831,32.4993 69.9171,31.7163 69.9171,30.7513 C69.9171,29.7863 69.3831,29.0033 68.7251,29.0033 M54.8531,32.4993 C55.5111,32.4993 56.0451,31.7163 56.0451,30.7513 C56.0451,29.7863 55.5111,29.0033 54.8531,29.0033 C54.1951,29.0033 53.6621,29.7863 53.6621,30.7513 C53.6621,31.7163 54.1951,32.4993 54.8531,32.4993 M56.8371,26.5973 C57.1101,26.5553 57.2971,26.2993 57.2551,26.0263 C57.2131,25.7543 56.9621,25.5713 56.6851,25.6083 C56.2411,25.6773 55.5741,25.5153 54.9281,25.3583 C53.5081,25.0143 51.5651,24.5433 50.9691,26.5753 C50.8911,26.8413 51.0431,27.1183 51.3081,27.1953 C51.3551,27.2093 51.4021,27.2163 51.4491,27.2163 C51.6651,27.2163 51.8651,27.0743 51.9291,26.8573 C52.2241,25.8453 52.9991,25.9183 54.6921,26.3303 C55.4671,26.5183 56.2001,26.6963 56.8371,26.5973 M72.5711,25.6823 C69.4511,24.1523 67.3281,25.6633 67.2381,25.7283 C67.0171,25.8903 66.9691,26.2003 67.1301,26.4233 C67.2911,26.6453 67.6011,26.6953 67.8271,26.5363 C67.8961,26.4863 69.5721,25.3263 72.1311,26.5803 C72.2021,26.6143 72.2771,26.6313 72.3501,26.6313 C72.5361,26.6313 72.7131,26.5283 72.8001,26.3513 C72.9211,26.1033 72.8191,25.8043 72.5711,25.6823 M64.4961,43.9763 C58.7731,44.7743 56.3411,43.9043 55.3071,43.0363 C54.6091,42.4483 54.5741,41.8723 54.5731,41.8363 C54.5691,41.5993 54.3761,41.4073 54.1381,41.4073 C53.8981,41.4073 53.7041,41.6023 53.7041,41.8423 C53.7041,41.9403 53.7311,42.8173 54.6991,43.6593 C55.5531,44.4023 57.2251,45.1533 60.4991,45.1533 C61.6591,45.1533 63.0201,45.0593 64.6161,44.8373 C64.8531,44.8043 65.0191,44.5843 64.9861,44.3473 C64.9541,44.1083 64.7341,43.9513 64.4961,43.9763 M64.1491,37.6063 C63.8601,38.2153 63.0661,38.5243 61.7891,38.5243 C60.5121,38.5243 59.7181,38.2153 59.4291,37.6063 C58.7341,36.1423 60.6361,33.1053 61.7891,31.5653 C62.9421,33.1053 64.8441,36.1423 64.1491,37.6063 M61.4021,30.4353 C60.9821,30.9483 57.3351,35.5263 58.5251,38.0343 C58.9941,39.0233 60.0921,39.5243 61.7891,39.5243 C63.4861,39.5243 64.5841,39.0233 65.0531,38.0343 C66.2431,35.5263 62.5961,30.9483 62.1761,30.4353 C61.9871,30.2023 61.5911,30.2023 61.4021,30.4353" id="Fill-4" fill="#000"/><path d="M52.4996066,34 C54.4327301,34 56,34.8954741 56,36 C56,37.1045259 54.4327301,38 52.4996066,38 C50.5664831,38 49,37.1045259 49,36 C49,34.8954741 50.5664831,34 52.4996066,34 Z M70.5,34 C72.4329063,34 74,34.8954741 74,36 C74,37.1045259 72.4329063,38 70.5,38 C68.5670937,38 67,37.1045259 67,36 C67,34.8954741 68.5670937,34 70.5,34 Z" id="Cheeks" fill="#E2A2B5"/></g></g><g id="Facial Hair" transform="translate(204.167262, 311.700000) scale(1 1)"><g id="Facial Hair/None" stroke="none" stroke-width="1" fill="none" fill-rule="evenodd" fill-opacity="0"/></g><g id="Accesories" transform="translate(107.500000, 210.000000) scale(1 1)" fill="#000"><g id="Accesories/None" stroke="none" stroke-width="1" fill="none" fill-rule="evenodd" fill-opacity="0"/></g></g></g></g></svg>