<svg viewBox="359.22997499999974 354.58064516129025 1602.71835 1024.959677419355" xmlns="http://www.w3.org/2000/svg" xmlns:xlink="http://www.w3.org/1999/xlink" overflow="visible" width="1602.71835px" height="1024.959677419355px"><defs><path d="M179.983583,9.27769636 L181.956861,20.13906 L282.571887,0.487769091 L248.831879,171 C248.831879,171 34.2644111,182.52079 24,169.014057 C-25.3329722,80.2433941 19.9056004,-2.27021273 19.9056004,9.27769636 L179.983583,9.27769636 Z" id="masterscenestudy-path-3"/><path d="M275.684414,0.876652922 C298.838059,1.54914435 329.906472,9.13626937 355.7471,15.2297529 L355.731944,15.2730262 C397.943463,24.6870841 452.971125,41.5664426 466.9347,60.6071529 C489.4187,91.2671529 484.8307,126.127153 444.6317,165.644153 C415.2977,194.481153 386.9717,210.585153 372.4107,216.074153 C363.858947,207.086013 354.27259,195.452866 345.166172,184.184251 L345.5431,187.063753 C345.8052,205.151453 195.8084,217.517053 146.0664,197.369053 L149.907924,169.277823 C138.376043,183.58138 125.055547,200.37944 113.5941,212.425753 C99.0331,206.935753 70.7081,190.832753 41.3741,161.994753 C1.1741,122.477753 -11.4139,87.6187529 11.0701,56.9587529 C23.1971,40.4207529 69.0261,26.2177529 108.6751,16.6397529 C108.048715,16.8278037 108.709162,16.7365391 110.005927,16.5033439 C127.558487,12.2104677 191.200137,-1.57717031 275.684414,0.876652922 Z M162.310363,78.5613735 L87.8171,104.583753 C87.8171,104.583753 122.608609,134.324697 151.917069,154.584908 L162.310363,78.5613735 Z M332.466363,87.1363735 L341.108096,153.169863 C367.388419,133.830342 393.927617,109.395078 395.144211,108.27232 L395.1877,108.232153 L332.466363,87.1363735 Z" id="masterscenestudy-path-5"/><polygon id="masterscenestudy-path-1" points="370.382075 216.481709 253.882075 253.241286 253.882075 94.5047056 370.382075 68.1312994"/></defs><g id="Master/Scene/Study" stroke="none" stroke-width="1" fill="none" fill-rule="evenodd"><g id="Desk" transform="translate(365.354157, 576.662185)"><polygon id="Fill-1" fill="#FFF5EE" points="401.245783 582.747738 3.06954462e-12 797.176717 934.394844 797.176717 1164.39112 582.747738"/><path d="M143.986417,755.183991 C142.614794,761.927891 146.971454,768.505858 153.715266,769.877275 C154.552747,770.047603 155.38803,770.13002 156.211223,770.13002 C162.013143,770.13002 167.209483,766.056428 168.410751,760.150982 L262.34602,298.257036 C262.461421,297.695502 262.521869,297.136166 262.558138,296.580127 L237.762322,294.081247 L143.986417,755.183991 Z" id="Fill-2" fill="#5BA092"/><path d="M345.968182,268.036849 L436.044663,759.520658 C437.147017,765.530498 442.387318,769.737056 448.289252,769.737056 C449.033314,769.737056 449.790564,769.668925 450.548913,769.530465 C457.318002,768.289816 461.801054,761.797562 460.561318,755.028388 L370.922262,265.936866 L346.000054,263.425898 C345.7132,264.906106 345.680229,266.462137 345.968182,268.036849" id="Fill-4" fill="#5BA092"/><path d="M554.396133,612.796938 C553.260808,619.584793 557.843874,626.006718 564.630549,627.142972 C565.32735,627.258356 566.018657,627.315498 566.70227,627.315498 C572.681138,627.315498 577.958808,623.000149 578.978733,616.908991 L635.598832,278.531596 C635.788968,277.395342 635.805454,276.272275 635.692251,275.178877 L610.083133,279.99532 L554.396133,612.796938 Z" id="Fill-6" fill="#5BA092"/><path d="M825.813657,623.373773 L725.443412,223.238651 C725.307129,222.695799 725.125784,222.177122 724.924657,221.671632 L700.906683,226.190275 C700.900379,227.21664 701.005888,228.25839 701.268563,229.302337 L801.638808,629.437458 C803.05769,635.093455 808.136431,638.868149 813.716341,638.868149 C814.71978,638.868149 815.740803,638.746172 816.75853,638.491229 C823.4331,636.816518 827.48752,630.048442 825.813657,623.373773" id="Fill-8" fill="#5BA092"/><polygon id="Fill-10" fill="#5BA092" points="142.901318 323.557704 142.901318 291.196436 612.89529 253.154995 805.70279 220.793727 805.70279 253.154995 431.442143 323.557704"/><polygon id="Fill-12" fill="#2F6858" points="142.901318 291.196216 612.89529 220.794606 805.70279 220.794606 431.442143 291.196216"/><path d="M478.200517,256.59178 L456.253456,256.59178 L471.039065,211.831714 L407.653173,211.831714 L390.247414,262.030196 L388.996687,265.097203 C388.653782,265.936757 388.506508,266.842243 388.563659,267.746632 C388.765885,270.907045 391.389333,273.367464 394.555716,273.367464 L478.200517,273.367464 C482.83414,273.367464 486.589617,269.61255 486.589617,264.979622 C486.589617,260.346693 482.83414,256.59178 478.200517,256.59178" id="Fill-14" fill="#B9B3B8"/><path d="M256.96383,17.5742145 L620.620778,0.0183171091 C629.462689,-0.406954066 636.874726,6.62705315 636.908797,15.4797265 L637.558446,186.177203 C637.588014,194.267245 631.404722,201.026529 623.343142,201.716633 L256.96383,233.071317 L256.96383,17.5742145 Z" id="Fill-16" fill="#010101"/><path d="M242.405617,17.5742145 L256.96372,17.5742145 L256.96372,233.071317 L242.405617,233.071317 C232.445966,233.071317 224.374494,224.998857 224.374494,215.041797 L224.374494,35.6026354 C224.374494,25.6455757 232.445966,17.5742145 242.405617,17.5742145" id="Fill-20" fill="#B9B3B8"/></g><g id="UI" transform="translate(714.558567, 362.469983)"><g id="UI-Simple"><polygon id="Fill-1" fill="#E3D4C5" points="0 71.9192897 0 403.165975 361.046689 276.238463 361.046689 11.7088034"/><polygon id="Fill-2" fill="#CDB1AA" points="144.147758 187.345029 39.0284892 206.203114 39.0284892 121.342284 144.147758 104.242426"/><polygon id="Fill-3" fill="#CDB1AA" points="144.147978 0 39.028709 1.90877527 39.028709 101.960687 144.147978 84.149847"/><polygon id="Fill-4" fill="#CDB1AA" points="144.147758 285.824647 39.0284892 308.349734 39.0284892 228.250402 144.147758 206.389046"/><polygon id="Fill-5" fill="#CDB1AA" points="39.0289288 334.016882 39.0289288 427.783132 144.951608 388.495548 144.148198 312.203877"/><polygon id="Fill-6" fill="#94C0E9" points="378.317594 225.280427 193.71675 283.687632 193.71675 92.4507667 378.317594 53.8269133"/><polygon id="Fill-6-Copy" fill="#FFF" points="237.396226 133.884674 202.226415 145.053734 202.226415 108.483998 237.396226 101.098057"/><polygon id="Fill-6-Copy-2" fill="#FFF" points="237.396226 175.368827 202.226415 186.811627 202.226415 149.345613 237.396226 138.460383"/><polygon id="Fill-6-Copy-3" fill="#FFF" points="237.396226 217.126721 202.226415 228.56952 202.226415 191.103506 237.396226 180.218276"/><polygon id="Fill-6-Copy-4" fill="#FFF" points="237.396226 258.884614 202.226415 270.327414 202.226415 232.861399 237.396226 221.976169"/><path d="M193.700402,101.447329 C193.700402,101.447329 191.313949,89.4049824 197.295416,87.878398 L372.772853,50.2313389 C375.299584,49.6884863 379.503239,48.5415922 378.317594,60.5690039 C378.856132,63.0920598 193.700402,101.447329 193.700402,101.447329 Z" id="Fill-7" fill="#3973B0"/></g><path d="M206.622642,93.4062365 C206.622642,95.2268708 205.146145,96.7024894 203.325472,96.7024894 C201.503952,96.7024894 200.028302,95.2268708 200.028302,93.4062365 C200.028302,91.5856021 201.503952,90.1091379 203.325472,90.1091379 C205.146145,90.1091379 206.622642,91.5856021 206.622642,93.4062365" id="Fill-24" fill="#F4F0F0"/><path d="M216.514151,91.2084526 C216.514151,93.0290869 215.038311,94.5047056 213.217404,94.5047056 C211.395651,94.5047056 209.919811,93.0290869 209.919811,91.2084526 C209.919811,89.3878183 211.395651,87.911354 213.217404,87.911354 C215.038311,87.911354 216.514151,89.3878183 216.514151,91.2084526" id="Fill-26" fill="#F4F0F0"/><path d="M225.306604,89.0106688 C225.306604,90.8313031 223.830953,92.3069217 222.01028,92.3069217 C220.18876,92.3069217 218.712264,90.8313031 218.712264,89.0106688 C218.712264,87.1900344 220.18876,85.7135702 222.01028,85.7135702 C223.830953,85.7135702 225.306604,87.1900344 225.306604,89.0106688" id="Fill-28" fill="#F4F0F0"/><mask id="masterscenestudy-mask-2" fill="#ffffff"><use xlink:href="#masterscenestudy-path-1" fill="#ffffff"/></mask><use id="Fill-6-Copy-5" fill="#FFF" xlink:href="#masterscenestudy-path-1"/><g mask="url(#masterscenestudy-mask-2)"><g transform="translate(222.009434, 40.659001) scale(1.0990571428571427 1.0988899082568806)" id="Patterns"><g id="Patterns/Pattern 6" stroke="none" stroke-width="1" fill="none" fill-rule="evenodd"><path d="M280,-1 L280,-5.70654635e-14 L281,-5.70654635e-14 L281,218 L278,218 L278,175.999 L234,175.999 L234,218 L231,218 L231,175.999 L187,175.999 L187,218 L184,218 L184,175.999 L140,175.999 L140,218 L137,218 L137,175.999 L93,175.999 L93,218 L90,218 L90,175.999 L46,175.999 L46,218 L43,218 L43,175.999 L-1.42108547e-14,176 L-1.40271577e-14,173 L43,172.999 L43,132.75 L-1.42108547e-14,132.75 L-1.40271577e-14,129.75 L43,129.75 L43,89 L-1.42108547e-14,89 L-1.40271577e-14,86 L43,86 L43,45.999 L-1.42108547e-14,46 L-1.40271577e-14,43 L43,42.999 L43,2 L-1.42108547e-14,2 L-1.40271577e-14,-1 L280,-1 Z M90,132.75 L46,132.75 L46,172.999 L90,172.999 L90,132.75 Z M137,132.75 L93,132.75 L93,172.999 L137,172.999 L137,132.75 Z M184,132.75 L140,132.75 L140,172.999 L184,172.999 L184,132.75 Z M231,132.75 L187,132.75 L187,172.999 L231,172.999 L231,132.75 Z M278,132.75 L234,132.75 L234,172.999 L278,172.999 L278,132.75 Z M90,89 L46,89 L46,129.75 L90,129.75 L90,89 Z M137,89 L93,89 L93,129.75 L137,129.75 L137,89 Z M184,89 L140,89 L140,129.75 L184,129.75 L184,89 Z M231,89 L187,89 L187,129.75 L231,129.75 L231,89 Z M278,89 L234,89 L234,129.75 L278,129.75 L278,89 Z M90,45.999 L46,45.999 L46,86 L90,86 L90,45.999 Z M137,45.999 L93,45.999 L93,86 L137,86 L137,45.999 Z M184,45.999 L140,45.999 L140,86 L184,86 L184,45.999 Z M231,45.999 L187,45.999 L187,86 L231,86 L231,45.999 Z M278,45.999 L234,45.999 L234,86 L278,86 L278,45.999 Z M90,2 L46,2 L46,42.999 L90,42.999 L90,2 Z M137,2 L93,2 L93,42.999 L137,42.999 L137,2 Z M184,2 L140,2 L140,42.999 L184,42.999 L184,2 Z M231,2 L187,2 L187,42.999 L231,42.999 L231,2 Z M278,2 L234,2 L234,42.999 L278,42.999 L278,2 Z" id="Pattern" fill="#010101"/></g></g></g></g><g id="Dog" transform="translate(1530.353827, 1091.000000)"><path d="M54.0615573,4.48263191 C80.3223206,-4.08665214 135.044519,-9.56385837 161.372336,78.707916 C161.372336,78.707916 235.95774,78.3665541 278.194809,84.1829198 C327.491176,90.9705152 328.755298,113.425519 349.008733,124.142079 C396.505649,149.271819 431.361344,152.041254 431.53122,157.526169 C432.04287,174.552418 361.325679,153.912138 352.663695,151.020472 C352.663695,151.020472 365.938076,187.719075 347.919389,271.141309 C347.275237,274.124371 344.544733,276.193465 341.505344,275.986445 L332.759817,275.389612 C329.54455,275.168278 327.048183,272.492441 327.048183,269.262718 L327.048183,222.752714 C327.048183,220.402823 325.078351,218.537445 322.738076,218.667383 L322.599573,218.675091 C320.535206,218.789612 318.881954,220.432554 318.751145,222.500546 L315.759023,269.696577 C315.554565,272.929605 312.876824,275.446873 309.64287,275.446873 L302.912244,275.446873 C299.62113,275.446873 296.917008,272.843714 296.787298,269.549021 L293.882015,195.529655 C293.882015,195.529655 190.797802,220.223332 149.115847,218.875504 L142.940336,276.6042 C142.623756,279.569644 140.225221,281.87769 137.255084,282.077002 L134.087084,282.288426 C131.115847,282.486636 128.431511,280.516647 127.724702,277.618375 L115.413252,227.127651 C114.944977,225.209418 113.174107,223.899029 111.205374,224.014651 L110.596397,224.05099 C108.535328,224.173219 106.888672,225.816161 106.758962,227.879749 L103.723969,276.553546 C103.537099,279.544317 101.222107,281.96248 98.2475725,282.276313 L92.0467786,282.930406 C88.848,283.268465 85.9328244,281.070535 85.3700153,277.898072 L57.2361527,119.203344 C57.2361527,119.203344 -5.95346565,70.8576942 24.6514809,26.1150638 C31.7063817,15.8015307 42.1952977,8.35543735 54.0615573,4.48263191" id="Fill-1" fill="#9B7368"/><path d="M208.782302,162.498049 C207.718241,152.743909 196.802821,147.467116 188.369478,152.459808 C177.079218,159.144995 163.453081,171.010073 182.510547,182.362007 C201.742791,193.816349 210.344318,176.816528 208.782302,162.498049" id="Fill-4" fill="#F7D3BB"/><path d="M85.1665466,23.661663 C84.1497527,28.1577292 80.9619664,31.2663245 78.0467908,30.6056241 C75.1316153,29.9427214 73.592684,25.7615891 74.6094779,21.265523 C75.6262718,16.7694568 78.8151573,13.6608615 81.7292336,14.322663 C84.6444092,14.9833634 86.1844397,19.1655969 85.1665466,23.661663" id="Fill-6" fill="#010101"/><path d="M56.8204214,43.4740856 C56.4104061,42.7175837 55.4650626,42.436786 54.7076885,42.8486226 C54.6549252,42.8772529 49.2785588,45.7546031 44.1781008,44.0015447 C41.2365435,42.9917743 38.9182534,40.5879261 37.2891847,36.85607 L37.0077802,36.2096848 L44.5474443,27.8408132 C45.4631084,26.8244358 44.8849099,25.1958093 43.5339481,24.9887899 L34.178345,23.5462607 C32.9274137,23.3546576 31.9051237,24.5373113 32.2766656,25.7496965 L35.2918718,35.6172568 L34.6037496,36.5620584 C34.5322992,36.6611634 27.2949252,46.3943813 17.1236885,42.469821 C16.326742,42.1625953 15.4187725,42.5612179 15.109887,43.3661712 C14.8010015,44.1711245 15.2022229,45.0740817 16.0046656,45.3835097 C25.2591389,48.9479883 32.4338565,43.3419455 35.4996275,40.238856 C37.4221924,43.6106304 39.9933069,45.8647198 43.1679023,46.9548755 C44.7101313,47.4856381 46.2545588,47.6871518 47.7110473,47.6871518 C52.2750779,47.6871518 55.9915969,45.7006459 56.196055,45.5905292 C56.9512305,45.1786926 57.2315359,44.2305875 56.8204214,43.4740856" id="Fill-8" fill="#010101"/><path d="M110.031389,105.09651 C122.684702,122.320969 141.036458,62.8436187 146.683237,42.996179 C138.595053,28.6215409 129.423023,18.7231479 119.92342,12.0842101 C115.371481,26.0646304 96.6822595,86.9228444 110.031389,105.09651" id="Fill-10" fill="#6D4038"/><path d="M239.41495,128.195146 C265.268995,168.733519 308.738308,114.007706 304.91956,90.8270331 C297.929515,88.0289669 289.278522,85.7088074 278.194919,84.1825895 C268.063255,82.7874105 256.068385,81.7468074 243.69098,80.9704844 C232.368843,88.6786556 223.307835,102.939874 239.41495,128.195146" id="Fill-12" fill="#F7D3BB"/><path d="M19.236971,69.3708981 C11.3191695,78.5238008 -7.77237252,104.127042 3.4453374,127.22733 C14.0046046,148.972081 26.5600855,112.236038 32.0430779,93.0779292 C26.8810626,86.0656957 22.1422534,78.0095556 19.236971,69.3708981" id="Fill-14" fill="#6D4038"/></g><g id="Object/Floor" transform="translate(318.353827, 898.000000) scale(1 1)"><defs><path d="M0.2288,0 L157.5878,2.467 L139.6958,150.317 C138.4498,160.618 134.3088,170.429 127.4358,178.202 C118.4958,188.314 103.0808,197.81 77.1818,195.344 C51.0968,192.859 34.0198,181.742 23.4938,171.317 C14.3728,162.283 9.0308,150.118 8.2788,137.302 L0.2288,0 Z" id="objectfloorplant-2-path-1"/></defs><g id="Object/Floor/Plant 2" stroke="none" stroke-width="1" fill="none" fill-rule="evenodd"><g id="Plant-2" transform="translate(58.000000, 0.000000)"><path d="M24.6592,46.7744 C24.9622,46.8654 55.2902,56.3264 85.9432,90.2654 C103.9082,110.1574 118.5042,134.4604 129.3262,162.5004 C142.8322,197.4944 150.4632,238.4424 152.008059,284.2064 C152.0342,284.9884 151.4212,285.6444 150.6392,285.6714 L150.5902,285.6714 C149.8292,285.6714 149.2002,285.0674 149.1742,284.3024 C147.6412,238.8564 140.0732,198.2194 126.6822,163.5214 C115.9862,135.8064 101.5702,111.7994 83.8382,92.1654 C53.7092,58.8054 24.1342,49.5764 23.8392,49.4864 C23.0892,49.2604 22.6662,48.4694 22.8932,47.7204 C23.1202,46.9704 23.9162,46.5434 24.6592,46.7744 Z M231.5852,59.9691 C232.3512,60.1351 232.8352,60.8901 232.6692,61.6551 C220.5232,117.5321 159.2822,282.4751 158.6652,284.1351 C158.4532,284.7051 157.9122,285.0591 157.3372,285.0591 C157.1732,285.0591 157.0062,285.0301 156.8432,284.9691 C156.1092,284.6971 155.7352,283.8801 156.0092,283.1471 C156.6252,281.4901 217.7952,116.7341 229.9002,61.0531 C230.0652,60.2881 230.8162,59.7971 231.5852,59.9691 Z M33.5507,165.8888 C33.7227,165.9898 50.9527,176.1708 70.4047,195.5468 C88.3647,213.4358 111.9857,243.0728 122.5217,282.6638 C122.7227,283.4198 122.2727,284.1958 121.5157,284.3978 C121.3937,284.4298 121.2717,284.4458 121.1507,284.4458 C120.5237,284.4458 119.9507,284.0268 119.7817,283.3918 C99.9227,208.7678 32.7957,168.7308 32.1197,168.3348 C31.4437,167.9388 31.2167,167.0708 31.6127,166.3958 C32.0067,165.7188 32.8767,165.4938 33.5507,165.8888 Z" id="Combined-Shape" fill="#5BA092"/><path d="M130.2509,252.1354 C133.301866,252.780047 134.997644,253.898272 135.710079,255.310949 C136.1495,254.883775 136.637501,254.453278 137.1731,254.0201 C145.597286,247.205696 151.611694,258.383145 155.073017,268.40315 C161.004344,262.960212 170.14069,256.814107 171.344,269.1933 C171.41999,269.975062 171.431913,270.688296 171.386143,271.337977 C178.88709,267.686294 187.724946,265.97632 192.1411,274.5634 C202.1351,293.9964 158.5491,279.8384 158.5491,279.8384 C158.5491,279.8384 159.812031,278.735906 161.867409,277.213785 C160.379647,277.041394 158.860661,276.716916 157.427684,276.33087 C158.173312,279.253802 158.5491,281.2261 158.5491,281.2261 C158.5491,281.2261 151.248041,279.060848 144.322903,275.395262 C137.885143,276.99664 128.077996,278.051175 126.78809,270.118835 C122.824186,273.621565 119.0999,276.2124 119.0999,276.2124 L119.096687,276.180425 C118.994287,275.14335 116.57108,249.24538 130.2509,252.1354 Z M90.803,272.0408 C95.966,256.3168 118.847,278.2398 118.847,278.2398 C118.847,278.2398 84.445,291.4048 90.803,272.0408 Z M78.5492,256.1904 C76.7762,237.6894 109.2162,251.6284 109.2162,251.6284 C109.2162,251.6284 80.3232,274.6904 78.5492,256.1904 Z M167.1556,256.7964 C167.1556,256.7964 201.0246,222.3714 206.8546,247.9124 C211.4266,267.9414 167.1556,256.7964 167.1556,256.7964 Z M155.387796,222.722146 C161.174344,216.494192 167.83344,212.7328 169.4394,225.8116 C169.959947,230.048331 167.243041,232.457525 163.498746,233.800311 C166.70163,243.710695 167.1556,256.7964 167.1556,256.7964 C167.1556,256.7964 142.76879,246.105962 142.322159,234.572402 C138.251772,235.818603 131.302125,237.572154 125.838485,237.036755 C121.619888,244.817314 109.2162,251.6284 109.2162,251.6284 C109.2162,251.6284 109.637826,221.700415 119.513993,223.347282 C124.187102,217.89749 137.162311,226.775958 142.921978,231.181043 C143.81796,228.957593 145.7681,226.738188 149.1106,224.5924 C151.394615,223.126184 153.391863,222.677131 155.137998,222.99254 Z M90.2074,220.9624 C90.2074,220.9624 95.7834,251.1214 79.8164,242.5044 C63.8504,233.8874 90.2074,220.9624 90.2074,220.9624 Z M71.1996,198.6597 C71.1996,198.6597 80.8306,230.8467 63.8496,227.0447 C46.8696,223.2427 71.1996,198.6597 71.1996,198.6597 Z M217.4041,213.7653 C226.8251,237.9333 179.9261,222.0943 179.9261,222.0943 C179.9261,222.0943 211.0191,197.3863 217.4041,213.7653 Z M166.0451,188.2253 C181.0081,179.7273 179.0931,222.0943 179.0931,222.0943 C179.0931,222.0943 143.5581,200.9953 166.0451,188.2253 Z M103.3874,197.3924 C118.0864,198.9124 90.2074,220.9624 90.2074,220.9624 C90.2074,220.9624 78.9644,194.8654 103.3874,197.3924 Z M50.1644,179.398 C50.1644,179.398 64.8634,218.681 45.8554,211.332 C26.8484,203.982 50.1644,179.398 50.1644,179.398 Z M139.8138,200.8413 C139.8138,200.8413 110.1878,217.1363 110.1878,199.1493 C110.1878,181.1613 139.8138,200.8413 139.8138,200.8413 Z M156.7429,171.8506 C177.6929,178.6226 139.3909,199.9956 139.3909,199.9956 C139.3909,199.9956 135.7929,165.0786 156.7429,171.8506 Z M85.1386,170.2737 C101.8656,175.5967 71.1996,198.6597 71.1996,198.6597 C71.1996,198.6597 68.4116,164.9517 85.1386,170.2737 Z M33.2593124,167.475236 C31.5756414,162.481226 18.9602346,123.089048 41.0408,126.1757 C62.7121779,129.20528 38.1038689,162.015192 33.9987288,167.281374 C34.1295278,167.249204 34.1976,167.2329 34.1976,167.2329 C34.1976,167.2329 29.8886,207.5299 10.6276,190.2949 C-3.1928,177.9298 26.95522,169.14166 33.123028,167.507683 Z M193.2513,183.2281 C193.2513,183.2281 226.0103,153.8001 229.0643,180.4521 C231.0933,198.1581 193.2513,183.2281 193.2513,183.2281 Z M172.9853,157.1321 C186.3063,147.5641 193.2513,183.2281 193.2513,183.2281 C193.2513,183.2281 153.2743,171.2901 172.9853,157.1321 Z M62.3294,149.492 C84.6324,153.8 50.1644,179.398 50.1644,179.398 C50.1644,179.398 45.4064,146.222 62.3294,149.492 Z M129.4447,166.5601 C129.4447,166.5601 109.3407,188.7801 104.4737,169.9461 C101.0057,156.5221 129.4447,166.5601 129.4447,166.5601 Z M147.0077,135.6641 C164.5727,141.1661 129.4447,166.5601 129.4447,166.5601 C129.4447,166.5601 129.4447,130.1631 147.0077,135.6641 Z M117.806,139.6851 L117.790108,139.716812 C117.27272,140.743933 104.20738,166.28924 91.143,153.0171 C77.811,139.4741 117.806,139.6851 117.806,139.6851 Z M239.8911,137.4216 C249.8851,158.7976 205.4661,147.4156 205.4661,147.4156 C205.4661,147.4156 229.8971,116.0446 239.8911,137.4216 Z M177.4271,121.8746 C189.5201,107.7996 205.4661,147.4156 205.4661,147.4156 C205.4661,147.4156 160.4921,141.5856 177.4271,121.8746 Z M131.9834,104.5569 C149.7594,107.7319 116.7484,137.5689 116.7484,137.5689 C116.7484,137.5689 111.0224,100.8149 131.9834,104.5569 Z M99.6068,109.6363 C99.6068,109.6363 97.9148,144.1293 79.9268,131.2213 C65.1568,120.6203 99.6068,109.6363 99.6068,109.6363 Z M256.2695,104.9396 C260.4345,133.8116 218.0355,109.5826 218.0355,109.5826 C218.0355,109.5826 251.4405,71.4586 256.2695,104.9396 Z M82.6781,88.687 C82.6781,88.687 78.5951,126.573 62.9981,114.503 C45.2231,100.749 82.6781,88.687 82.6781,88.687 Z M110.3998,74.9323 C130.0798,77.8943 99.6068,109.6363 99.6068,109.6363 C99.6068,109.6363 90.3008,71.9063 110.3998,74.9323 Z M190.7532,79.3997 C209.9702,67.5117 218.2962,108.4077 218.2962,108.4077 C218.2962,108.4077 163.8242,96.0557 190.7532,79.3997 Z M53.264,63.2935 C53.264,63.2935 54.534,108.3665 34.854,97.3625 C15.173,86.3585 53.264,63.2935 53.264,63.2935 Z M82.2552,87.6284 C82.2552,87.6284 61.1382,49.0124 80.3502,48.6914 C105.7442,48.2684 82.2552,87.6284 82.2552,87.6284 Z M25.5423,48.6919 C25.5423,48.6919 24.2723,97.9979 3.5343,79.7989 C-11.3397,66.7459 25.5423,48.6919 25.5423,48.6919 Z M197.4155,29.7071 C225.4545,10.8291 230.4525,64.6861 230.4525,64.6861 C230.4525,64.6861 177.9485,42.8131 197.4155,29.7071 Z M277.3695,47.196 C290.9725,71.904 231.2845,61.354 231.2845,61.354 C231.2845,61.354 263.7655,22.488 277.3695,47.196 Z M53.264,63.2935 C53.264,63.2935 30.943,22.0035 54.956,21.1825 C79.715,20.3355 53.264,63.2935 53.264,63.2935 Z M25.5423,48.6919 L25.4444552,48.594186 C23.3646057,46.5062569 -10.92083,11.5535 14.3273,1.2909 C40.3553,-9.2901 25.5423,48.6919 25.5423,48.6919 Z" id="Combined-Shape" fill="#2F6858"/><g id="Base" transform="translate(51.000000, 280.998600)"><mask id="objectfloorplant-2-mask-2" fill="#ffffff"><use xlink:href="#objectfloorplant-2-path-1" fill="#ffffff"/></mask><use id="Mask" fill="#E58857" xlink:href="#objectfloorplant-2-path-1"/><path d="M21.8821454,166.976155 C29.6034071,169.861751 37.7851393,172.227187 46.3965987,173.959199 C48.3643527,174.355249 50.3545312,174.717943 52.3667804,175.046212 C53.3957809,175.213799 54.4297732,175.372547 55.4694793,175.522127 C59.4296778,176.092158 63.4734845,176.528949 67.5975009,176.822705 C68.7118205,176.902078 69.8290063,176.970747 70.9490324,177.028605 C72.021164,177.083699 73.0951927,177.129149 74.1717983,177.164614 C74.1844544,177.165321 74.1977965,177.165759 74.211139,177.166195 L75.3194863,177.198609 C93.442461,177.67526 112.290864,175.323008 131.756413,169.705029 C131.852891,169.677185 131.94976,169.65693 132.046382,169.643911 L132.190939,169.630068 C132.192275,169.629987 132.193611,169.629907 132.194947,169.629828 C133.107002,169.575292 133.968339,170.156487 134.232571,171.072013 C134.381,171.586301 134.313772,172.111711 134.084271,172.551545 C134.077118,172.565375 134.069549,172.57948 134.061813,172.593494 L133.990248,172.712992 C133.829049,172.962389 133.612155,173.176802 133.351,173.335519 C133.203123,173.425705 133.040412,173.497984 132.865498,173.548467 L131.919,173.8174 L131.650013,173.89506 L131.650013,173.89506 L130.435922,174.233946 C113.045819,179.027668 96.126901,181.270215 79.7621296,181.258842 C79.3775376,181.258275 78.9935929,181.256765 78.6099548,181.254017 C77.1739056,181.244018 75.7428113,181.216385 74.3160652,181.171611 C72.3478645,181.109564 70.3874765,181.015158 68.4355168,180.888648 L67.3132991,180.812595 L67.3132991,180.812595 L66.158,180.7254 L66.0719918,180.719501 C66.0409249,180.717068 66.0098625,180.714627 65.9788046,180.712178 C63.9456447,180.552126 61.9322948,180.357864 59.9384034,180.130766 L58.7258362,179.988055 C57.5158767,179.841597 56.3131638,179.683038 55.1177678,179.512635 L53.9249337,179.338587 C42.0196812,177.555892 30.8484653,174.5976 20.4817546,170.723345 C19.4470795,170.336665 18.9217753,169.18443 19.3084549,168.149755 L19.3688074,168.005452 L19.3688074,168.005452 L19.3085549,168.149455 C19.3822082,167.952374 19.4836367,167.773773 19.6067376,167.616436 L19.7029314,167.502763 C19.8483931,167.343168 20.0177535,167.209621 20.2031277,167.105717 C20.4003391,166.994839 20.6163336,166.917644 20.8409914,166.878558 L20.9869881,166.858968 C21.0360243,166.85413 21.0853662,166.8511 21.1349182,166.84992 C21.3827785,166.843722 21.6357941,166.884088 21.8821454,166.976155 Z M8.66604521,127.059905 L8.768,127.1094 L9.48978463,127.461357 C13.8996504,129.59426 18.5661762,131.569941 23.4784347,133.348357 L24.4024602,133.679789 C26.4318599,134.399758 28.5025662,135.086054 30.6138229,135.735904 C34.5502808,136.947275 38.6273522,138.032138 42.8404675,138.972366 C43.1693811,139.046048 43.4998449,139.118728 43.831139,139.190513 C48.7498124,140.256011 53.8514019,141.124717 59.1283533,141.768233 C60.8227695,141.974864 62.5242807,142.156626 64.23279,142.313126 L65.2588346,142.404292 C67.6675083,142.610323 70.0900075,142.766153 72.5260622,142.87069 C72.8597618,142.884713 73.1928535,142.898036 73.5261975,142.910399 L74.5671489,142.946153 C76.3032635,143.000039 78.0461825,143.02788 79.7958092,143.029282 L80.8462894,143.026648 C100.121654,142.92558 120.206302,139.616064 140.971358,132.57629 C141.170613,132.508738 141.373113,132.47439 141.572842,132.470277 L141.722126,132.473114 C142.167557,132.497456 142.591353,132.671102 142.925007,132.960236 L143.032693,133.060545 C143.241211,133.270131 143.406283,133.529376 143.50761,133.828258 L143.50771,133.828558 C143.862355,134.874646 143.30183,136.010165 142.255742,136.36481 C121.239574,143.489717 100.880085,146.871695 81.3194144,147.023951 L80.2721863,147.028721 C79.9233989,147.029383 79.574867,147.029018 79.2265914,147.027629 L78.1826346,147.020693 C73.3449311,146.97292 68.5569905,146.727546 63.8209918,146.292437 C63.4507925,146.258137 63.0800126,146.22288 62.7095528,146.186463 L61.6908655,146.083603 C60.6728877,145.977517 59.6573408,145.862663 58.6442467,145.739117 C56.8288368,145.517731 55.0335791,145.270293 53.258763,144.997888 C52.0635499,144.814163 50.8768517,144.619268 49.6995243,144.413368 C45.7721585,143.726781 41.9497806,142.917621 38.2349236,141.998349 C37.2486136,141.754004 36.2698882,141.502173 35.2988037,141.242811 L34.2989888,140.972655 C30.3971392,139.904012 26.6203411,138.713738 22.9726474,137.417023 C21.6487785,136.946145 20.3412943,136.461271 19.051026,135.96309 L18.1458247,135.61056 C14.2351935,134.072193 10.4851352,132.411627 6.90115479,130.649495 C5.90991667,130.162134 5.50144359,128.963493 5.98880462,127.972255 L6.049,127.8594 L6.06306707,127.834348 C6.4317463,127.210996 7.09710711,126.853278 7.78694692,126.853953 C8.08269255,126.854542 8.38283432,126.920659 8.66604521,127.059905 Z M6.4772319,89.1655667 C20.7964789,96.5464164 38.2288465,102.329849 58.3338627,104.879187 C85.7169638,108.351394 114.933234,105.327189 145.579437,94.1650688 C146.617307,93.7870501 147.765112,94.3219659 148.143131,95.3598366 C148.52115,96.3977073 147.986234,97.5455125 146.948363,97.9235312 C115.692487,109.30771 85.8345579,112.398334 57.8306873,108.847413 C37.2332985,106.235641 19.3590591,100.305611 4.6445681,92.7210333 C3.66275309,92.2149572 3.27709052,91.0087831 3.78316665,90.0269681 C4.28924278,89.0451531 5.49541688,88.6594905 6.4772319,89.1655667 Z M2.72307192,41.4769231 L2.87081084,41.4783038 C3.16614839,41.4918004 3.46303683,41.5712595 3.73974434,41.7230186 C4.06442535,41.9010885 4.3910409,42.0784012 4.71958453,42.2549325 C6.75363398,43.3479025 8.86118408,44.4106663 11.0410716,45.4377167 C16.3287349,47.9290011 22.0428417,50.2104707 28.1607494,52.1993806 C33.807286,54.0350226 39.7974903,55.6213886 46.1143838,56.8938109 C49.6230524,57.6006297 53.2332532,58.2106549 56.9413269,58.7126816 C59.7940463,59.098904 62.6664881,59.4145888 65.5582001,59.6578897 C65.851002,59.6824488 66.1433012,59.7062852 66.4357967,59.7293811 L67.3933255,59.8023682 C69.9477973,59.9896811 72.5171483,60.1205223 75.1010695,60.1936294 L76.0704223,60.2182358 C76.717312,60.2328993 77.3651099,60.2439446 78.0138112,60.2513519 L78.9878401,60.2598319 C79.3126419,60.2617141 79.6376689,60.2626843 79.9629205,60.2627402 L80.9390487,60.260062 C103.412369,60.1375548 126.95232,55.6497666 151.36052,45.9869198 C151.605048,45.8901148 151.857237,45.8448712 152.105065,45.845986 L152.253442,45.8522762 C152.668774,45.8851675 153.064757,46.0476549 153.383251,46.314576 C153.430468,46.3543275 153.475753,46.3959949 153.519165,46.4398541 C153.584291,46.5054491 153.644939,46.5758315 153.700787,46.6508324 C153.79811,46.7819329 153.880749,46.926558 153.94555,47.0837619 C153.94926,47.0921218 153.95295,47.1012498 153.95658,47.1104196 C154.363161,48.1374374 153.860198,49.299599 152.83318,49.7061802 C126.289635,60.2143789 100.708189,64.7247998 76.3613557,64.2255309 C74.1948249,64.1810138 72.0379899,64.0969164 69.891124,63.973843 L68.9190816,63.9154959 C68.6162097,63.8964472 68.3135373,63.8766228 68.0110651,63.8560244 C66.0193964,63.7203238 64.0357098,63.5510797 62.0608593,63.3488214 C61.4811124,63.2895117 60.9027316,63.2273556 60.3251146,63.1623743 C59.973966,63.1228061 59.6225003,63.0821889 59.2713187,63.0405273 L58.3145559,62.9244176 C57.6769846,62.8452213 57.0403552,62.7625818 56.4046731,62.6765184 C51.9890048,62.0786923 47.7080167,61.3311268 43.5662909,60.4515233 C40.7952505,59.8629854 38.0867746,59.2154393 35.4419984,58.5140986 C33.79234,58.0766632 32.1671732,57.6181912 30.5671313,57.1400693 C30.2279508,57.038706 29.89003,56.9365101 29.5532405,56.8334441 C29.0711306,56.685912 28.5918004,56.5367348 28.1147932,56.3858139 C27.0406344,56.0459604 25.9778058,55.6971171 24.9268731,55.3398338 C23.7155652,54.9280261 22.5197689,54.5049003 21.3399465,54.0711839 C14.798249,51.6663988 8.74775713,48.9360808 3.21601528,45.9871342 C2.75127112,45.7393213 2.28989323,45.4898632 1.83219803,45.2389235 C1.82723256,45.2362657 1.82159383,45.2331737 1.81595566,45.2300814 C0.847479379,44.6989247 0.49296184,43.4832319 1.02411857,42.5147557 C1.37822306,41.8691048 2.03656578,41.4963245 2.72307192,41.4769231 Z M-2.79290394,5.27216639 C12.5918456,13.8223797 31.9883852,20.7814444 54.8086353,23.9122182 C86.7780402,28.29819 121.035163,24.3930034 157.03695,9.95037597 C158.148905,9.50429916 159.407182,10.0561206 159.847389,11.1829037 C160.287596,12.3096867 159.743036,13.5847416 158.63108,14.0308184 C121.925791,28.7556657 86.9197245,32.7462292 54.2275983,28.2611052 C30.8450316,25.0531856 10.9505392,17.915466 -4.87547185,9.12001771 C-5.9240445,8.53726401 -6.30788188,7.20347793 -5.73279663,6.14092313 C-5.15771138,5.07836833 -3.84147659,4.68941268 -2.79290394,5.27216639 Z" id="Combined-Shape" fill="#F4F0F0" mask="url(#objectfloorplant-2-mask-2)"/></g></g></g></g><g id="Object/Chair" transform="translate(1244.353827, 1059.000000) scale(-1, 1) translate(-1244.353827, -1059.000000) translate(1008.353827, 747.000000) scale(1 1)"><g id="Object/Chair/Office Chair" stroke="none" stroke-width="1" fill="none" fill-rule="evenodd"><rect id="Rectangle" fill="#2F6858" x="195" y="288" width="48" height="281"/><path d="M104,557 L334,557 C351.120827,557 365,570.879173 365,588 L365,588 L365,588 L73,588 C73,570.879173 86.8791728,557 104,557 Z" id="Rectangle" fill="#5BA092"/><circle id="Oval" fill="#2F6858" cx="76" cy="606" r="18"/><circle id="Oval-Copy" fill="#2F6858" cx="219" cy="606" r="18"/><circle id="Oval-Copy-2" fill="#2F6858" cx="362" cy="606" r="18"/><path d="M48.9947817,0 L113.234086,0 C138.28995,1.67135945e-14 159.47695,18.5453686 162.793997,43.3806968 L188.437833,235.380697 C192.093573,262.75188 172.868408,287.904171 145.497225,291.559911 C143.302966,291.85298 141.091665,292 138.877921,292 L81.0003052,292 C71.5911711,292 63.3304772,285.741404 60.7840032,276.683409 L0.860729415,63.5319255 C-6.61274668,36.9482225 8.87915317,9.33942379 35.4628562,1.86594769 C39.8668952,0.627840277 44.4200174,8.4037058e-16 48.9947817,0 Z" id="Rectangle" fill="#5BA092"/><path d="M361.962292,300 L86.0387061,300 C76.6281238,300 69,290.597199 69,279 C69,267.402801 76.6281238,258 86.0387061,258 L361.962292,258 C371.371876,258 379,267.402801 379,279 C379,290.597199 371.371876,300 361.962292,300" id="Fill-39" fill="#78BFB1"/></g></g><g transform="translate(1237.853827, 890.500000) scale(-1, 1) translate(-1237.853827, -890.500000) translate(753.353827, 407.000000) scale(1 1)" id="Master/Character/Sitting"><defs><path d="M275.684414,0.876652922 C298.838059,1.54914435 329.906472,9.13626937 355.7471,15.2297529 L355.731944,15.2730262 C397.943463,24.6870841 452.971125,41.5664426 466.9347,60.6071529 C489.4187,91.2671529 484.8307,126.127153 444.6317,165.644153 C415.2977,194.481153 386.9717,210.585153 372.4107,216.074153 C363.858947,207.086013 354.27259,195.452866 345.166172,184.184251 L345.5431,187.063753 C345.8052,205.151453 195.8084,217.517053 146.0664,197.369053 L149.907924,169.277823 C138.376043,183.58138 125.055547,200.37944 113.5941,212.425753 C99.0331,206.935753 70.7081,190.832753 41.3741,161.994753 C1.1741,122.477753 -11.4139,87.6187529 11.0701,56.9587529 C23.1971,40.4207529 69.0261,26.2177529 108.6751,16.6397529 C108.048715,16.8278037 108.709162,16.7365391 110.005927,16.5033439 C127.558487,12.2104677 191.200137,-1.57717031 275.684414,0.876652922 Z M162.310363,78.5613735 L87.8171,104.583753 C87.8171,104.583753 122.608609,134.324697 151.917069,154.584908 L162.310363,78.5613735 Z M332.466363,87.1363735 L341.108096,153.169863 C367.388419,133.830342 393.927617,109.395078 395.144211,108.27232 L395.1877,108.232153 L332.466363,87.1363735 Z" id="mastercharactersitting-path-1"/></defs><g id="Master/Character/Sitting" stroke="none" stroke-width="1" fill="none" fill-rule="evenodd"><g id="Bottom/Sitting" transform="translate(15.000000, 331.000000) scale(1 1)"><g id="Bottom/Sitting/Crossed" stroke="none" stroke-width="1" fill="none" fill-rule="evenodd"><g id="Legs" transform="translate(246.000000, 109.000000)"><path d="M75.5,14 L173,14 C174.104569,14 175,14.8954305 175,16 L175,161 C175,162.104569 174.104569,163 173,163 L75.5,163 C34.3547861,163 1,129.645214 1,88.5 C1,47.3547861 34.3547861,14 75.5,14 Z" id="Rectangle" fill="#010101"/><path d="M457.0754,373.4699 L349.2674,140.0609 C349.2674,116.8949 348.3064,104.4119 332.0364,90.2519 C312.8824,73.5799 232.9984,34.7589 211.8254,25.7489 C190.5404,16.6909 191.473654,1.0009 191.473654,1.0009 L23.6584,1.0009 C23.6584,1.0009 -73.0828187,163.32922 128.262581,163.32922 L215.1884,164.3289 L118.9084,355.6939 L220.4684,414.9369 L293.4544,257.9889 L336.2994,396.5969 L457.0754,373.4699 Z" id="Pants" fill="#010101"/><g id="Shoes" transform="translate(101.937905, 358.461700)"><g id="Shoe-2" transform="translate(243.697495, 10.099725)"><path d="M13.003,73.5388746 L0,25.8578746 L100.484,6.80087455 L105.67,20.6968746 C108.867,29.2658746 116.969,35.0778746 126.113,35.2038746 C139.919,35.3938746 158.631,37.9318746 160.256,50.1138746 L25.186,80.8478746 C19.822,82.0678746 14.45,78.8448746 13.003,73.5388746" id="Fill-3" fill="#F3705A"/><path d="M130.037179,27.0360105 C134.346143,26.9423929 137.005403,22.2954537 134.903908,18.5325084 C133.202681,15.4874923 129.19313,14.6633871 126.428547,16.7904476 L112.616869,27.4130477 L130.037179,27.0360105 Z M108.981253,27.6861015 L125.209107,15.2052141 C128.940955,12.3339428 134.353294,13.4463705 136.649975,17.5571878 C139.486665,22.636576 135.897107,28.9091682 130.080538,29.0355404 L109.612538,29.4785404 C108.646919,29.4994398 108.215653,28.2749264 108.981253,27.6861015 Z M118.717795,10.3078678 C120.671095,6.46595059 117.831762,1.92602561 113.522767,2.00092024 C110.034597,2.06220581 107.414341,5.20552846 107.98761,8.67928742 L110.191468,25.3852665 L118.717795,10.3078678 Z M108.59949,28.6095617 L106.00957,8.97304909 C105.242148,4.32715808 108.779259,0.0839528628 113.487822,0.00122556622 C119.304678,-0.0998772189 123.137286,6.02823497 120.47968,11.2532788 L110.46138,28.9709788 C109.988934,29.8065148 108.725026,29.5611739 108.59949,28.6095617 Z" id="Combined-Shape" fill="#B9B3B8"/></g><g id="Shoe-1"><path d="M22.249395,-8.52651283e-14 L107.839395,50.11 L102.704395,64.024 C99.537395,72.604 101.886395,82.294 108.734395,88.356 C119.074395,97.506 131.600395,111.638 124.884395,121.93 L5.46439497,58.108 C0.603394972,55.534 -1.36560503,49.587 0.999394972,44.621 L22.249395,-8.52651283e-14 Z" id="Fill-10" fill="#F3705A"/><path d="M120.129739,68.9868288 C124.395554,68.3689154 126.468859,63.4334634 123.924124,59.9550914 C121.863331,57.1392705 117.783953,56.8094112 115.309433,59.247337 L103.531206,71.2017837 L120.129739,68.9868288 Z M125.538171,58.7740527 C128.973374,63.4695953 126.174564,70.132095 120.405369,70.9677132 L111.90715,72.1017675 L121.096141,72.6079217 C125.797636,72.8675839 129.172715,77.2405408 128.231824,81.8542362 C127.069126,87.5551348 120.256077,89.9675736 115.765212,86.2682682 L99.9632124,73.2522682 C99.2757649,72.6860224 99.6235099,71.6135319 100.438014,71.491593 L113.895253,57.8331678 C117.249827,54.5279928 122.756518,54.9732649 125.538171,58.7740527 Z M103.587601,73.6465363 L117.036799,84.7245496 C120.363708,87.4650581 125.410811,85.6779247 126.272163,81.4545786 C126.96917,78.0367743 124.468879,74.797245 120.985996,74.6048864 L103.587601,73.6465363 Z" id="Combined-Shape" fill="#B9B3B8"/></g></g><path d="M150.0579,0.0009 C150.361952,0.0009 150.649488,0.139232223 150.839246,0.376801658 C150.986043,0.560586298 151.229959,0.891412194 151.5386,1.35297095 C152.047339,2.1137667 152.554983,2.97181091 153.02891,3.91134482 C155.10121,8.01955972 155.889058,12.2722405 154.598975,16.3020346 C154.518389,16.5537581 154.429762,16.803416 154.333002,17.0509272 C167.694369,16.7435015 181.881896,16.2081202 196.917076,15.4233594 C197.46861,15.3945721 197.939053,15.818342 197.969225,16.369876 C197.996628,16.92141 197.572858,17.3918533 197.021324,17.4206406 C192.708004,17.6457742 188.464188,17.8504147 184.289301,18.0350498 C184.36813,18.1495871 184.451953,18.2698219 184.539855,18.3931285 C185.293054,19.449701 186.182943,20.507246 187.201495,21.4919638 C190.207402,24.39802 193.66855,26.0651334 197.543092,25.9099047 C200.81737,25.7784737 203.685106,25.4672815 206.14682,25.0317357 C207.307574,24.8263661 208.298696,24.6071299 209.120308,24.3890015 C209.603308,24.2607707 209.916971,24.1636003 210.061398,24.1124568 C210.582005,23.928103 211.153489,24.2006904 211.337843,24.7212978 C211.522197,25.2419053 211.24961,25.8133893 210.729002,25.9977432 C210.53408,26.0667675 210.168923,26.1798906 209.633506,26.3220373 C208.757759,26.554538 207.711679,26.7859309 206.495264,27.0011485 C203.945205,27.452325 200.987865,27.7732406 197.623232,27.9082984 C193.13112,28.0882693 189.177034,26.1837251 185.811365,22.9298579 C184.699029,21.854471 183.731586,20.7047609 182.911299,19.5540783 C182.484594,18.9555053 182.173362,18.466645 181.980117,18.1340795 C171.949347,18.563927 162.320589,18.8760401 153.085862,19.0786597 C152.974166,19.1248471 152.852431,19.1505737 152.726935,19.1528374 C152.65229,19.1541837 152.65229,19.1541837 152.299732,19.1602065 C151.951955,19.1660592 151.548511,19.1725797 151.094001,19.179601 C149.795632,19.1996584 148.348225,19.2197145 146.788576,19.2384331 C144.059284,19.2711894 141.328644,19.2959122 138.66372,19.3101652 C138.052144,19.316378 137.441317,19.3219781 136.83237,19.3270695 L136.835481,19.3022641 C136.029046,31.122948 144.037987,41.7805349 155.654435,44.3966178 C184.191351,50.8211903 215.233099,58.4860907 243.406083,66.5731409 C284.433489,78.3500508 311.753936,88.886615 320.317035,97.5752588 C332.87589,110.318286 341.170072,120.939515 346.022004,129.549904 C347.734519,132.588987 348.893162,135.165889 349.599931,137.294145 C350.035757,138.606526 350.223267,139.496449 350.264183,139.976227 C350.311112,140.526515 349.90306,141.010654 349.352773,141.057583 C348.802485,141.104512 348.318346,140.69646 348.271417,140.146173 C348.266397,140.087315 348.242473,139.926221 348.186602,139.661055 C348.087414,139.190312 347.930186,138.612031 347.701857,137.924473 C347.036828,135.921909 345.930799,133.462023 344.279596,130.531746 C339.520903,122.086822 331.33421,111.603239 318.892566,98.9791424 C310.684722,90.6509613 283.460636,80.1515601 242.854267,68.4955091 C214.725111,60.4210397 183.717539,52.7645778 155.215097,46.3477669 C142.696585,43.5285345 134.045417,32.0793773 134.828767,19.3411542 C119.758171,19.4410671 105.852577,19.2258541 93.0693437,18.7321663 C93.0584454,19.467346 93.0049126,20.3835987 92.8854732,21.427307 C92.6485699,23.4974621 92.2026316,25.5515543 91.4939644,27.4813411 C89.8804882,31.875033 87.121618,35.0660067 82.9813006,36.4463924 C71.838999,40.1601382 60.59179,39.1283183 50.1826208,35.1667242 C48.1432409,34.3905628 46.3061792,33.5584011 44.6995687,32.724931 C44.1941144,32.4627137 43.7434168,32.2166974 43.3500103,31.9917688 C41.5263951,40.7633809 40.4277904,49.3709565 40.3088921,57.4636904 C40.0408513,75.707712 44.8529583,89.2099298 55.8434174,96.4276234 C65.7940683,102.962183 80.6455681,108.105675 100.719754,112.395213 C116.622339,115.793345 133.723895,118.360484 161.22639,121.800602 C163.326159,122.06325 165.501912,122.333468 168.233381,122.67126 C169.325357,122.806301 173.992977,123.382739 175.220735,123.5346 C206.510387,127.404791 221.955935,129.649154 237.133665,132.921157 C256.851827,137.171984 269.998145,142.315348 277.00097,149.168838 C285.619539,157.604189 295.932039,178.007565 307.661559,208.466526 C314.246331,225.565718 321.159501,245.540639 328.291357,267.815362 C336.869544,294.607371 345.321492,323.310289 353.281289,352.012825 C356.067139,362.058427 358.592526,371.386596 360.811661,379.758302 C361.588427,382.68866 362.271452,385.290242 362.855011,387.533167 C363.0593,388.318356 363.236574,389.002674 363.38612,389.582384 C363.475908,389.930445 363.536534,390.166427 363.567285,390.286596 C363.704198,390.821641 363.381449,391.366371 362.846404,391.503285 C362.311359,391.640198 361.766629,391.317449 361.629715,390.782404 C361.599284,390.663482 361.53898,390.428756 361.449519,390.081961 C361.300316,389.503578 361.123388,388.820598 360.91945,388.036757 C360.336647,385.79674 359.654397,383.198109 358.878427,380.270755 C356.661173,371.906144 354.137762,362.585273 351.354026,352.547294 C343.400722,323.868169 334.955892,295.189426 326.386606,268.425219 C319.265627,246.184468 312.364567,226.244535 305.795166,209.18526 C294.171552,179.001312 283.940787,158.759649 275.602055,150.598186 C268.946602,144.08466 256.084602,139.052532 236.712189,134.876242 C221.613158,131.621205 206.204251,129.382167 174.975228,125.519474 C173.747713,125.367644 169.080122,124.791209 167.987918,124.65614 C165.255603,124.318244 163.078989,124.047918 160.978157,123.785138 C133.421749,120.338275 116.276215,117.764535 100.301821,114.351058 C80.0061126,110.014185 64.9475698,104.798988 54.7455669,98.0993663 C43.0716637,90.4328388 38.0320473,76.2922562 38.3091079,57.4343096 C38.5044973,44.135256 41.2901542,29.5356788 45.5842172,15.0844478 C44.7225467,14.9775489 43.870478,14.8686642 43.0267358,14.7580112 C35.3789133,13.7550335 29.0729303,12.6795929 24.0243621,11.6029784 C22.2523896,11.2251026 20.7631368,10.8736678 19.5460544,10.5575831 C19.1176669,10.4463279 18.7533685,10.3472516 18.4518409,10.2614678 C18.2677748,10.2091016 18.1438443,10.1722553 18.078731,10.1520425 C17.5512756,9.98830717 17.2564222,9.4279864 17.4201575,8.90053101 C17.5838928,8.37307561 18.1442136,8.07822222 18.671669,8.24195752 C18.7215569,8.25744398 18.8302667,8.28976493 18.9991183,8.33780273 C19.2857866,8.4193591 19.6352375,8.51439738 20.0487906,8.62179996 C21.2372528,8.93045178 22.6979663,9.27515191 24.4414859,9.64696001 C29.437181,10.7122993 35.690816,11.7788124 43.2867999,12.7749916 C44.2485053,12.9011149 45.2211106,13.0249341 46.2046597,13.1464117 C46.4378113,12.7702276 46.9025909,12.5827642 47.3456872,12.7181389 C47.6692722,12.8170005 47.9062238,13.0651 48.0041371,13.3639242 C66.5093984,15.5669178 88.7991342,16.9545144 115.15348,17.2877063 L115.1549,1.0009 C115.1549,0.44861525 115.602615,0.0009 116.1549,0.0009 L150.0579,0.0009 Z M215.29236,163.334687 L254.353425,167.405694 C261.325916,168.132834 267.210771,172.912225 269.351898,179.586817 L294.406898,257.683817 C294.575611,258.209701 294.286067,258.772784 293.760183,258.941498 C293.234299,259.110211 292.671216,258.820667 292.502502,258.294783 L267.447494,180.197756 C265.548656,174.27846 260.329572,170.039775 254.14604,169.394913 L238.679933,167.7829 L140.230785,367.20697 C139.986305,367.702195 139.386656,367.905464 138.89143,367.660985 C138.396205,367.416505 138.192936,366.816856 138.437415,366.32163 L236.558933,167.5619 L215.08504,165.323913 C214.53573,165.266663 214.136837,164.774949 214.194087,164.22564 C214.251337,163.67633 214.743051,163.277437 215.29236,163.334687 Z M47.5973967,15.3302504 L47.3576831,16.1397468 C46.0018382,20.7406875 44.8018605,25.3544895 43.793408,29.9315607 C43.8795717,29.9848661 44.0207297,30.0696083 44.215911,30.1825837 C44.614216,30.4131319 45.083649,30.6710708 45.6205625,30.9496083 C47.1614688,31.7489927 48.9290604,32.5496855 50.8940149,33.2975216 C60.9070348,37.1083465 71.6995479,38.0984525 82.3488145,34.5490359 C85.8411961,33.3846727 88.1954823,30.6616503 89.6165512,26.7919069 C90.2654123,25.0249793 90.6784157,23.1225928 90.8984419,21.1999161 C90.9794355,20.4921623 91.0293761,19.8208093 91.0540831,19.2001231 C91.0621193,18.998238 91.0670573,18.814457 91.0695535,18.6503483 C74.7485069,17.9786286 60.2883922,16.8457918 47.5973967,15.3302504 Z M149.556549,2.0009 L117.1549,2.0009 L117.1549,16.9789285 C120.276958,17.2149418 125.982807,17.3223843 133.523144,17.3240105 C135.203055,17.3243614 136.931,17.3194605 138.687611,17.3100076 C143.071879,17.2661565 147.551306,17.1960688 152.128441,17.0989386 L152.099521,17.1632727 C152.336443,16.6824702 152.534203,16.1920324 152.694202,15.6922479 C153.796675,12.2484863 153.10149,8.49598505 151.24323,4.81209242 C150.807958,3.94919083 150.341459,3.16069189 149.876056,2.46470297 C149.756409,2.28577641 149.649021,2.13069782 149.556549,2.0009 Z" id="Pants-details" fill="#B9B3B8"/></g></g></g><g id="Head" transform="translate(247.000000, 64.000000) scale(1 1)"><g id="Head/Shaved" stroke="none" stroke-width="1" fill="none" fill-rule="evenodd"><g id="Shaved" transform="translate(38.000000, 51.000000)"><path d="M69.7059,0.0007 C38.1519,0.0007 12.5729,22.7597 12.5729,50.8347 C12.5729,56.5827 13.6609,62.1007 15.6369,67.2527 C15.4429,67.2477 15.2519,67.2287 15.0559,67.2287 C6.7409,67.2287 -0.0001,72.7737 -0.0001,79.6147 C-0.0001,86.4557 6.7409,92.0007 15.0559,92.0007 C19.6519,92.0007 23.7619,90.3017 26.5209,87.6297 C27.5179,86.6657 29.0589,86.5617 30.1129,87.4637 C37.8329,94.0747 47.6299,98.7767 58.5539,100.7007 C59.9579,100.9477 60.9499,102.2117 60.8679,103.6347 L59.3079,131 L85.7469,131 L84.5229,109.4997 C84.2259,104.3107 87.2629,99.4527 92.1209,97.6077 C112.5329,89.8537 126.8389,71.8307 126.8389,50.8347 C126.8389,22.7597 101.2599,0.0007 69.7059,0.0007 Z" id="Skin" fill="#f7d3bb"/><path d="M69.7062,0.0002 C38.1522,0.0002 12.5732,22.7592 12.5732,50.8342 C12.5732,56.5822 13.6612,62.1012 15.6372,67.2532 L20.8412,74.9952 C22.0292,76.7632 24.0472,77.7882 26.1752,77.7072 L29.6732,77.5722 C31.8802,77.3722 33.3662,75.2222 32.7742,73.0872 L28.7202,58.4662 C36.8172,49.5162 37.3002,26.5792 37.3002,26.5792 C60.5372,38.1972 127.9202,28.1272 110.0042,14.8032 C99.6732,5.6562 85.4332,0.0002 69.7062,0.0002" id="Hair" fill="#010101"/></g></g></g><g id="Face" transform="translate(321.000000, 155.000000) scale(1 1)"><g id="Face/Only Smile" stroke="none" stroke-width="1" fill="none" fill-rule="evenodd"><path d="M24.5178251,25.3715593 C24.3904907,24.5529767 24.9508581,23.7861595 25.7694407,23.6588251 C26.5880233,23.5314907 27.3548405,24.0918581 27.4821749,24.9104407 C27.5129744,25.1084388 27.5820633,25.4981339 27.6939841,26.051842 C27.882572,26.9848478 28.1231015,28.0270441 28.4199855,29.1506295 C29.2678003,32.3592641 30.3940077,35.5662904 31.8295492,38.5472017 C35.6269147,46.4324561 40.8201229,51.2494004 47.6062417,51.7175572 C54.197401,52.1722905 58.6042164,44.9809961 60.9687346,32.3435258 C61.7520252,28.157129 62.2504123,23.6629963 62.5176846,19.129946 C62.6153755,17.4730669 62.6761266,15.9048035 62.7069263,14.4583214 C62.7276059,13.4871166 62.7323787,12.7034287 62.7282811,12.1403069 C62.7273942,12.0381735 62.7273942,12.0381735 62.7271486,12.0211137 C62.7154878,11.1927687 63.3775412,10.5118094 64.2058863,10.4999969 C65.0342313,10.4884878 65.7151906,11.1505412 65.7268514,11.9788863 C65.7272265,12.0059185 65.7272265,12.0059185 65.7282017,12.1184779 C65.7325009,12.7093116 65.7275549,13.5214488 65.7062464,14.5221853 C65.6746732,16.0049985 65.6124741,17.6106399 65.5124835,19.3065218 C65.238315,23.9565357 64.726489,28.571852 63.9175626,32.8952626 C61.2957928,46.9076472 56.1445398,55.3137575 47.3997642,54.7104432 C39.3256144,54.1534285 33.3431099,48.604375 29.1266462,39.8488605 C27.6005062,36.6798207 26.4127809,33.2976137 25.5195281,29.917015 C25.2070384,28.7343686 24.953329,27.6350642 24.7534524,26.6462102 C24.6830565,26.2979391 24.6243147,25.9875973 24.5766216,25.7185852 C24.5473669,25.5535746 24.527968,25.4367639 24.5178251,25.3715593 Z" id="Stroke-1" fill="#010101"/></g></g><g id="Body" transform="translate(64.000000, 26.000000) scale(1 1)"><defs><path d="M52.3136,35.579135 C24.2816,81.676135 4.8836,207.462135 2.2606,277.621135 C-0.3234,346.744135 -2.5224,369.424135 24.0216,375.641135 L20.9416,395.273135 C20.9416,395.273135 56.8156,403.737135 69.2736,403.737135 L71.7646,381.221135 C71.7646,381.221135 106.2666,390.699135 102.8016,283.649135 C99.3756,177.776135 99.183,197.520663 99.183,197.520663 C99.183,197.520663 215.052691,200.84399 264.887691,195.23699 C264.887691,195.23699 271.3276,255.415135 342.3426,228.005135 C413.3576,200.596135 464.4386,149.515135 464.4386,149.515135 C464.4386,149.515135 487.5286,127.397135 476.3156,106.217135 L498.1186,90.644135 C498.1186,90.644135 483.2306,63.754135 470.0866,50.153135 L445.1696,65.726135 C445.1696,65.726135 422.6146,34.117135 354.3786,106.794135 L319.2936,143.286135 C319.2936,143.286135 301.6456,4.00813497 195.6906,1.57413497 C181.7536,1.25413497 80.3456,-10.518865 52.3136,35.579135 Z" id="bodypointing-path-1"/></defs><g id="Body/Pointing" stroke="none" stroke-width="1" fill="none" fill-rule="evenodd"><g id="Body" transform="translate(126.000000, 210.000000)"><g id="Jumper" transform="translate(15.000000, 7.692465)"><mask id="bodypointing-mask-2" fill="#ffffff"><use xlink:href="#bodypointing-path-1" fill="#ffffff"/></mask><use fill="#010101" xlink:href="#bodypointing-path-1"/><g mask="url(#bodypointing-mask-2)"><g transform="translate(-62.000000, 5.307535) scale(1 1)" id="Patterns"><g id="Patterns/Pattern 7" stroke="none" stroke-width="1" fill="none" fill-rule="evenodd"><path d="M128.5,180 C138.717268,180 147,188.282732 147,198.5 C147,208.717268 138.717268,217 128.5,217 C118.282732,217 110,208.717268 110,198.5 C110,188.282732 118.282732,180 128.5,180 Z M128.5,187 C122.148725,187 117,192.148725 117,198.5 C117,204.851275 122.148725,210 128.5,210 C134.851275,210 140,204.851275 140,198.5 C140,192.148725 134.851275,187 128.5,187 Z M221.5,162 C231.717268,162 240,170.282732 240,180.5 C240,190.717268 231.717268,199 221.5,199 C211.282732,199 203,190.717268 203,180.5 C203,170.282732 211.282732,162 221.5,162 Z M21.5,161 C31.7172679,161 40,169.282732 40,179.5 C40,189.717268 31.7172679,198 21.5,198 C11.2827321,198 3,189.717268 3,179.5 C3,169.282732 11.2827321,161 21.5,161 Z M221.5,169 C215.148725,169 210,174.148725 210,180.5 C210,186.851275 215.148725,192 221.5,192 C227.851275,192 233,186.851275 233,180.5 C233,174.148725 227.851275,169 221.5,169 Z M21.5,168 C15.1487254,168 10,173.148725 10,179.5 C10,185.851275 15.1487254,191 21.5,191 C27.8512746,191 33,185.851275 33,179.5 C33,173.148725 27.8512746,168 21.5,168 Z M110.5,109 C120.717268,109 129,117.282732 129,127.5 C129,137.717268 120.717268,146 110.5,146 C100.282732,146 92,137.717268 92,127.5 C92,117.282732 100.282732,109 110.5,109 Z M110.5,116 C104.148725,116 99,121.148725 99,127.5 C99,133.851275 104.148725,139 110.5,139 C116.851275,139 122,133.851275 122,127.5 C122,121.148725 116.851275,116 110.5,116 Z M183.5,100 C193.717268,100 202,108.282732 202,118.5 C202,128.717268 193.717268,137 183.5,137 C173.282732,137 165,128.717268 165,118.5 C165,108.282732 173.282732,100 183.5,100 Z M183.5,107 C177.148725,107 172,112.148725 172,118.5 C172,124.851275 177.148725,130 183.5,130 C189.851275,130 195,124.851275 195,118.5 C195,112.148725 189.851275,107 183.5,107 Z M44.5,81 C54.7172679,81 63,89.2827321 63,99.5 C63,109.717268 54.7172679,118 44.5,118 C34.2827321,118 26,109.717268 26,99.5 C26,89.2827321 34.2827321,81 44.5,81 Z M253.5,81 C263.717268,81 272,89.2827321 272,99.5 C272,109.717268 263.717268,118 253.5,118 C243.282732,118 235,109.717268 235,99.5 C235,89.2827321 243.282732,81 253.5,81 Z M44.5,88 C38.1487254,88 33,93.1487254 33,99.5 C33,105.851275 38.1487254,111 44.5,111 C50.8512746,111 56,105.851275 56,99.5 C56,93.1487254 50.8512746,88 44.5,88 Z M253.5,88 C247.148725,88 242,93.1487254 242,99.5 C242,105.851275 247.148725,111 253.5,111 C259.851275,111 265,105.851275 265,99.5 C265,93.1487254 259.851275,88 253.5,88 Z M192.5,28 C202.717268,28 211,36.2827321 211,46.5 C211,56.7172679 202.717268,65 192.5,65 C182.282732,65 174,56.7172679 174,46.5 C174,36.2827321 182.282732,28 192.5,28 Z M110.5,28 C120.717268,28 129,36.2827321 129,46.5 C129,56.7172679 120.717268,65 110.5,65 C100.282732,65 92,56.7172679 92,46.5 C92,36.2827321 100.282732,28 110.5,28 Z M192.5,35 C186.148725,35 181,40.1487254 181,46.5 C181,52.8512746 186.148725,58 192.5,58 C198.851275,58 204,52.8512746 204,46.5 C204,40.1487254 198.851275,35 192.5,35 Z M110.5,35 C104.148725,35 99,40.1487254 99,46.5 C99,52.8512746 104.148725,58 110.5,58 C116.851275,58 122,52.8512746 122,46.5 C122,40.1487254 116.851275,35 110.5,35 Z M40.5,9 C50.7172679,9 59,17.2827321 59,27.5 C59,37.7172679 50.7172679,46 40.5,46 C30.2827321,46 22,37.7172679 22,27.5 C22,17.2827321 30.2827321,9 40.5,9 Z M40.5,16 C34.1487254,16 29,21.1487254 29,27.5 C29,33.8512746 34.1487254,39 40.5,39 C46.8512746,39 52,33.8512746 52,27.5 C52,21.1487254 46.8512746,16 40.5,16 Z M258.5,2 C268.717268,2 277,10.2827321 277,20.5 C277,30.7172679 268.717268,39 258.5,39 C248.282732,39 240,30.7172679 240,20.5 C240,10.2827321 248.282732,2 258.5,2 Z M258.5,9 C252.148725,9 247,14.1487254 247,20.5 C247,26.8512746 252.148725,32 258.5,32 C264.851275,32 270,26.8512746 270,20.5 C270,14.1487254 264.851275,9 258.5,9 Z" id="Pattern" fill="#010101"/></g></g></g><g mask="url(#bodypointing-mask-2)"><g transform="translate(-62.000000, 223.307535)" id="Patterns"/></g><g mask="url(#bodypointing-mask-2)"><g transform="translate(218.000000, 5.307535)" id="Patterns"/></g><path d="M87.4450984,107.307527 C87.9971651,107.323448 88.4321235,107.783567 88.4166052,108.335633 L86.0167094,193.712276 C86.1418219,193.773656 86.2904775,193.843242 86.4635808,193.919904 C87.3319421,194.304478 88.4457202,194.693294 89.8263654,195.059089 C92.3662951,195.732031 95.4921963,196.243085 99.2572524,196.523423 C99.8080126,196.564432 100.221248,197.044155 100.180239,197.594915 C100.139231,198.145675 99.6595077,198.558911 99.1087476,198.517902 C95.2237398,198.228632 91.9762908,197.697707 89.3141479,196.992385 C86.756977,196.314875 85.1884642,195.620223 84.4452474,195.124678 C84.1587804,194.933674 83.9907204,194.608733 84.0003948,194.264564 L86.4173948,108.279437 C86.4329132,107.72737 86.8930317,107.292411 87.4450984,107.307527 Z M248.943698,116.067784 L265.865489,195.027439 C265.981221,195.567462 265.637265,196.099056 265.097242,196.214788 C264.557219,196.33052 264.025625,195.986564 263.909893,195.446541 L246.988102,116.486886 C246.87237,115.946863 247.216326,115.415269 247.756349,115.299537 C248.296372,115.183805 248.827966,115.527761 248.943698,116.067784 Z" id="Jumper-Details" fill="#B9B3B8"/></g><path d="M35.9416,403.9653 L59.2276,409.0313 L84.2746,412.4293 L63.3476,487.9433 C63.3476,487.9433 58.4536,511.0753 57.7876,512.4073 C57.1206,513.7393 42.3296,514.7673 44.6606,498.7783 C44.6606,498.7783 38.1636,510.7323 34.3356,512.4363 C32.8136,513.1123 26.8106,516.2563 24.4786,504.9313 C24.4786,504.9313 19.2886,509.9793 16.0536,508.5283 C11.1366,506.3253 10.4146,504.1173 11.8646,497.0663 C11.8646,497.0663 -0.6544,502.7403 0.0266,485.4553 C0.5386,472.4713 22.9936,432.8723 22.9936,432.8723 C22.9936,432.8723 26.5036,413.9603 35.9416,403.9653 L35.9416,403.9653 Z M586.4776,0.0117 C588.8796,0.1197 591.5556,2.0327 591.3686,5.3067 C590.7416,16.2787 573.2676,24.3327 573.2676,24.3327 C573.2676,24.3327 576.8676,26.1327 578.0676,31.5317 C579.2966,37.0637 577.4676,41.2807 577.4676,41.2807 C577.4676,41.2807 581.2016,42.4257 581.9286,48.4847 C582.1966,50.7147 582.1476,54.8937 579.8586,56.9697 C579.8586,56.9697 586.9456,60.8807 582.7406,71.2947 C582.7406,71.2947 573.6416,89.1847 546.6796,86.9377 C546.6796,86.9377 530.9556,96.5687 513.1186,99.3367 C513.1186,99.3367 493.5896,65.2727 485.0866,58.8457 C485.0866,58.8457 483.9406,38.0227 512.4856,22.0097 C512.4856,22.0097 524.9566,14.5867 533.8166,14.6847 C536.7706,14.7177 539.0756,15.3217 540.3506,18.5087 L581.0106,1.0077 C582.7486,0.3147 584.6086,-0.0733 586.4776,0.0117 Z M205.545821,8.86428041 C206.627215,8.86428041 179.436952,34.1317415 146.077344,8.57124337 C171.278955,6.83582567 191.101781,6.93350468 205.545821,8.86428041 Z" id="Skin" fill="#f7d3bb"/><path d="M41.2232302,472.008878 C41.704006,472.280674 41.8734176,472.890754 41.6016216,473.37153 C41.5694954,473.428357 41.5064516,473.540149 41.4150156,473.702712 C41.2624174,473.974014 41.0853451,474.289708 40.8858399,474.646459 C40.3156151,475.666122 39.6801353,476.810016 38.9957339,478.051451 C37.0404306,481.598174 35.0851989,485.215176 33.2608897,488.688528 C32.9092432,489.358037 32.5653313,490.016824 32.2297468,490.663918 C28.7727699,497.329873 26.3690714,502.421466 25.4267597,505.247698 C25.2520729,505.771629 24.6857318,506.054747 24.1618015,505.88006 C23.6378712,505.705373 23.3547535,505.139032 23.5294403,504.615102 C24.5164263,501.654879 26.9480722,496.504087 30.4542983,489.743167 C30.7915132,489.092929 31.1370299,488.431068 31.4902617,487.75854 C33.3214943,484.272007 35.2829147,480.643556 37.2442634,477.085868 C37.9306902,475.840759 38.5681223,474.69335 39.1402543,473.670277 C39.340574,473.31207 39.5184483,472.994946 39.6718386,472.722235 C39.7639956,472.558391 39.8274271,472.445911 39.8605784,472.38727 C40.1323743,471.906494 40.7424543,471.737082 41.2232302,472.008878 Z M55.0359027,469.557141 C55.5563534,469.741937 55.8284553,470.313652 55.6436593,470.834103 L45.6026593,499.113103 C45.4178633,499.633553 44.846148,499.905655 44.3256973,499.720859 C43.8052466,499.536063 43.5331447,498.964348 43.7179407,498.443897 L53.7589407,470.164897 C53.9437367,469.644447 54.515452,469.372345 55.0359027,469.557141 Z M25.2356514,466.800818 C25.6905586,467.113991 25.8054563,467.736644 25.4922824,468.191551 C25.4588234,468.240153 25.3893608,468.343875 25.2862885,468.502251 C25.1115186,468.770794 24.9079224,469.093063 24.6778928,469.468593 C24.0171309,470.547306 23.2793278,471.833498 22.4836205,473.323438 C20.2043891,477.591237 17.92295,482.629553 15.7922402,488.408626 C14.7368053,491.271257 13.7435606,494.252505 12.8231864,497.350302 C12.6658947,497.879714 12.1092109,498.181378 11.5797982,498.024086 C11.0503855,497.866795 10.7487219,497.310111 10.9060136,496.780698 C11.8387349,493.641343 12.8455569,490.619342 13.9157202,487.716764 C16.0789066,481.849606 18.3980705,476.727978 20.7194422,472.381273 C21.5339459,470.856137 22.2913388,469.535795 22.9724194,468.423911 C23.2120347,468.032732 23.4253681,467.69505 23.6100204,467.411322 C23.7226013,467.238336 23.8016999,467.120225 23.8449176,467.057449 C24.1580914,466.602541 24.7807441,466.487644 25.2356514,466.800818 Z M23.322038,431.928079 C23.8436274,432.109636 24.1192781,432.679649 23.9377212,433.201238 C23.9282742,433.228378 23.9044269,433.314185 23.8776426,433.449414 C23.6594031,434.551265 23.8362478,435.799595 24.7187139,436.994194 C25.2171671,437.668953 25.9248579,438.291339 26.8751935,438.845734 C27.3522382,439.124027 27.5133585,439.736349 27.2350658,440.213393 C26.9567731,440.690438 26.3444512,440.851558 25.8674065,440.573266 C24.6877733,439.885105 23.7742764,439.081722 23.1100407,438.182542 C21.8535519,436.481626 21.59696,434.670368 21.9157551,433.06083 C21.9614216,432.830268 22.0100252,432.655383 22.0488788,432.543762 C22.2304358,432.022173 22.8004485,431.746522 23.322038,431.928079 Z M574.156675,23.8743503 C574.409704,24.3652624 574.216862,24.968346 573.72595,25.2213751 C573.659698,25.2555229 573.659698,25.2555229 573.345442,25.4173533 C572.915299,25.6387697 572.675342,25.7622318 572.269611,25.9708473 C571.11046,26.5668512 569.816932,27.2309531 568.421485,27.9461336 C564.434404,29.9895524 560.429232,32.0329925 556.665516,33.9403493 C556.441355,34.0539375 556.441355,34.0539375 556.217148,34.167504 C547.802552,38.4292808 541.922487,41.337319 539.649878,42.326417 C534.249135,44.6770299 531.766965,47.5571211 531.541335,50.612887 C531.38067,52.7888116 532.499494,55.0573322 533.760073,55.9854988 C535.942062,57.5935899 538.987134,57.2754664 549.252461,54.1956712 C557.713768,51.6573603 573.191086,43.5127458 576.831373,40.5091627 C577.257371,40.157674 577.887649,40.2180756 578.239137,40.6440734 C578.590626,41.0700712 578.530224,41.7003486 578.104227,42.0518373 C574.255015,45.2278027 558.53976,53.4976263 549.827165,56.1113212 L549.405522,56.2382487 C549.402769,56.2392917 549.400009,56.2403239 549.397242,56.2413451 C549.312471,56.2726318 549.144302,56.3379011 548.904778,56.4360784 C548.500432,56.6018134 548.048566,56.7983752 547.561272,57.0246267 C546.169137,57.6709979 544.777474,58.4231742 543.484063,59.270053 C539.946071,61.5866038 537.853841,64.1353735 537.821928,66.7432365 C537.7801,70.2180426 539.070802,72.0305067 541.29928,72.7708728 C542.387956,73.1325631 543.572567,73.1940618 544.632291,73.0776659 C544.797989,73.0594663 544.910679,73.0422282 544.973041,73.0304471 C545.037896,73.0189903 545.169427,72.9944619 545.363168,72.9563003 C545.689775,72.891968 546.069695,72.8128753 546.498459,72.718464 C547.727326,72.447875 549.098214,72.1092808 550.575304,71.6982812 C554.794442,70.5243079 559.012562,69.0077775 562.941595,67.1161671 C566.165578,65.5639992 569.053676,63.8221116 571.521362,61.8837376 C574.419168,59.607983 576.504608,57.9567478 577.910068,56.8305714 C578.400687,56.4374447 578.771061,56.138206 579.037654,55.9204983 C579.195026,55.7919831 579.281844,55.7200552 579.314288,55.6926194 C579.736001,55.3360022 580.366963,55.3887736 580.723581,55.8104875 C581.080198,56.2322015 581.027426,56.8631635 580.605712,57.2197806 C580.563656,57.2553448 580.46831,57.3343388 580.30269,57.4695892 C580.030962,57.6914909 579.65586,57.994549 579.160682,58.3913286 C577.749579,59.5220272 575.659207,61.177167 572.756719,63.4565992 C570.166581,65.4911589 567.156279,67.3067513 563.809172,68.9181967 C559.763287,70.8660649 555.436853,72.4215367 551.111436,73.6250824 C549.597931,74.0462144 548.191839,74.3935035 546.928544,74.6716734 C546.485051,74.7693279 546.090621,74.8514413 545.749685,74.9185961 C545.691785,74.9300007 545.638777,74.940323 545.591045,74.9495233 C545.518309,75.0152521 545.428272,75.0986138 545.325701,75.1979362 C544.972643,75.5398114 544.618541,75.9324303 544.289327,76.3668084 C542.947601,78.1371362 542.441735,79.9830105 543.164817,81.809572 C543.9595,83.8141708 545.280259,85.1116493 547.118217,85.8574872 C547.629971,86.0651555 547.876481,86.6483627 547.668813,87.1601168 C547.461144,87.6718709 546.877937,87.9183812 546.366183,87.7107128 C544.030651,86.7629606 542.305038,85.0677646 541.305405,82.5461785 C540.280771,79.9578736 540.973265,77.4310085 542.69539,75.1587676 L542.746614,75.0928044 C542.05598,75.0318523 541.355949,74.8971879 540.66871,74.668867 C537.614024,73.6540101 535.769769,71.0642212 535.822075,66.7189637 C535.860002,63.619626 537.866079,60.8643864 541.201423,58.4183949 C536.701042,59.3502291 534.52589,59.0343618 532.573883,57.5957637 C530.775285,56.2714532 529.333873,53.348855 529.546765,50.465613 C529.833194,46.5864319 532.824114,43.116032 538.851732,40.4925786 C541.071868,39.5263179 546.945944,36.6212423 555.313492,32.3832941 C555.537483,32.2698369 555.537483,32.2698369 555.761433,32.1563556 C559.522134,30.250527 563.524709,28.2084113 567.50929,26.1662742 C568.903924,25.4515101 570.196676,24.7878064 571.355075,24.1921898 C571.760487,23.9837381 572.000271,23.8603647 572.429966,23.6391791 C572.743793,23.4775697 572.743793,23.4775697 572.80965,23.4436249 C573.300562,23.1905959 573.903646,23.3834382 574.156675,23.8743503 Z M540.352694,17.5087999 C540.904977,17.510125 541.351619,17.9589108 541.3503,18.511194 C541.329762,27.0889489 536.076472,34.5122405 523.139236,39.5664442 C523.159841,42.5908531 523.084649,46.1932598 522.837431,49.6614951 C522.47909,54.6886816 521.837803,58.2644481 520.748799,59.988777 C520.453892,60.4557332 519.836279,60.5952064 519.369323,60.300299 C518.902367,60.0053917 518.762894,59.3877793 519.057801,58.920823 C519.90074,57.5861139 520.5094,54.1922717 520.842492,49.5192947 C521.093644,45.9958736 521.164406,42.3143727 521.136881,39.2773754 C521.135202,39.0921357 521.133533,38.9640251 521.132439,38.8984794 C521.125395,38.4762373 521.384358,38.0950852 521.779505,37.9460994 C534.430301,33.1762613 539.33145,26.3814971 539.350303,18.506406 C539.351625,17.9541229 539.800411,17.5074807 540.352694,17.5087999 Z" id="Skin-Shadows" fill="#371D0A"/></g></g></g></g></g></g></svg>